<?xml version="1.0" standalone="no"?>
<svg version="1.0" xmlns="http://www.w3.org/2000/svg"
 width="884.000000pt" height="1080.000000pt" viewBox="0 0 884.000000 1080.000000"
 preserveAspectRatio="xMidYMid meet">

<g transform="translate(0.000000,1080.000000) scale(0.100000,-0.100000)"
fill="#000000" stroke="none">
<path d="M0 5400 l0 -5400 4420 0 4420 0 0 5400 0 5400 -4420 0 -4420 0 0
-5400z m4543 5047 c21 -17 30 -35 37 -82 6 -33 10 -75 10 -93 0 -19 12 -63 26
-100 25 -62 26 -68 12 -106 -17 -47 -40 -56 -70 -29 -30 27 -39 49 -49 120
-16 114 -35 127 -93 63 -33 -37 -42 -62 -37 -110 3 -26 -46 41 -58 80 -16 54
-13 109 8 156 22 49 86 123 116 134 25 9 61 -3 98 -33z m225 -210 c6 -6 12
-39 14 -72 l3 -60 -32 -3 c-32 -3 -33 -5 -33 -47 0 -62 -13 -89 -75 -158 -35
-38 -55 -70 -56 -86 -1 -14 -3 -39 -5 -55 -6 -55 8 -59 59 -17 60 50 129 69
179 48 35 -15 83 -67 112 -124 33 -65 12 -243 -29 -243 -12 0 -15 18 -15 99 0
112 -11 153 -46 176 -23 15 -28 15 -49 1 -32 -21 -75 -79 -75 -101 0 -33 24
-97 38 -102 7 -3 28 9 47 27 39 38 50 28 41 -34 -9 -56 -39 -104 -71 -112 -22
-5 -34 0 -64 30 -44 43 -51 44 -51 10 0 -27 -47 -124 -61 -124 -11 0 -60 61
-77 97 -18 38 -32 41 -57 13 -26 -28 -50 -33 -84 -16 -40 21 -71 63 -71 97 0
28 0 28 50 22 56 -6 67 1 96 65 13 30 13 36 -2 62 -10 15 -28 33 -41 39 -46
21 -74 13 -120 -34 -57 -60 -59 -102 -7 -187 20 -32 34 -61 31 -64 -8 -9 -60
22 -87 51 -21 22 -25 38 -28 100 -2 40 1 89 8 109 13 42 75 96 144 126 52 24
72 21 129 -17 45 -31 57 -25 28 16 -12 16 -38 65 -59 108 -36 76 -37 80 -37
196 0 105 2 120 19 133 30 21 49 -1 43 -49 -7 -54 18 -120 59 -157 41 -36 73
-38 101 -7 25 27 63 127 63 166 0 61 11 91 35 91 12 0 27 -6 33 -13z m-914
-36 c67 -16 64 -26 -22 -70 -137 -72 -214 -166 -266 -326 -18 -58 -26 -164
-11 -165 5 -1 19 27 31 62 31 92 57 139 107 191 84 86 214 146 315 147 62 0
61 -12 -2 -40 -42 -19 -106 -73 -106 -88 0 -5 -8 -24 -17 -43 -11 -22 -19 -66
-21 -125 -5 -118 13 -182 73 -260 26 -34 42 -61 36 -67 -5 -5 -26 -11 -47 -13
-50 -6 -92 19 -139 85 -41 57 -64 70 -82 45 -21 -29 -15 -121 17 -248 17 -66
30 -138 30 -161 0 -78 -51 -190 -106 -234 -35 -28 -44 -27 -44 7 0 15 -7 52
-15 82 -9 30 -19 109 -24 176 -7 97 -13 132 -34 177 -23 50 -29 57 -55 57 -44
0 -56 -23 -63 -119 -5 -65 -13 -99 -33 -138 -14 -29 -29 -53 -32 -53 -4 0 -4
17 0 38 19 105 17 159 -8 281 -64 307 -43 438 99 616 65 81 108 113 200 150
113 45 150 51 219 36z m1457 -44 c70 -32 103 -75 160 -209 33 -76 49 -103 69
-111 14 -7 27 -14 30 -18 3 -3 18 -9 33 -13 16 -4 36 -20 47 -39 23 -36 60
-153 60 -186 0 -34 -40 -27 -73 14 -40 50 -59 47 -50 -7 14 -75 7 -130 -27
-228 -32 -89 -34 -106 -39 -260 l-6 -165 -53 55 c-83 86 -106 138 -106 240 -1
83 1 88 50 185 55 107 69 164 58 244 -8 64 -58 128 -91 117 -27 -9 -43 -54
-43 -123 0 -30 -7 -67 -15 -83 -36 -70 -165 -127 -165 -74 0 8 13 41 29 72 42
84 46 117 22 183 -16 42 -39 72 -97 129 -41 41 -79 81 -84 89 -8 16 -13 58
-11 96 1 25 47 76 93 105 43 28 130 22 209 -13z m1302 -942 c51 -26 187 -150
187 -170 0 -4 7 -13 15 -19 46 -34 88 -298 49 -313 -25 -9 -67 41 -94 112 -29
78 -97 167 -160 209 -95 64 -235 40 -336 -58 -54 -53 -84 -121 -84 -191 0 -65
-13 -125 -26 -125 -7 0 -21 14 -30 32 -9 17 -33 53 -54 80 -69 86 -75 153 -25
257 54 110 177 196 305 211 120 13 190 7 253 -25z m-3689 -26 c136 -45 173
-112 163 -294 -6 -111 -34 -204 -73 -244 -19 -20 -25 -22 -38 -12 -25 21 -105
162 -128 226 -31 83 -97 150 -159 159 -53 8 -135 -6 -187 -33 -44 -23 -115
-96 -159 -166 -54 -86 -52 -208 6 -323 82 -163 101 -212 81 -212 -21 0 -110
105 -140 167 -33 67 -40 116 -31 233 6 73 40 199 71 259 44 87 151 180 272
236 72 34 226 36 322 4z m1468 -325 c21 -15 38 -29 38 -33 0 -9 -76 -91 -84
-91 -4 0 -6 15 -4 33 3 30 1 32 -27 29 -61 -8 -71 -39 -26 -81 29 -27 33 -51
13 -88 -16 -29 -15 -34 4 -26 14 5 15 0 9 -38 -4 -24 -15 -50 -24 -57 -12 -10
-13 -15 -3 -18 7 -3 12 -23 12 -47 0 -31 -3 -38 -10 -27 -8 13 -10 13 -10 -2
0 -9 -5 -18 -10 -20 -6 -2 -2 -13 10 -25 24 -26 26 -53 5 -53 -8 0 -15 -7 -15
-16 0 -13 3 -14 13 -5 19 15 28 3 21 -25 -4 -14 -2 -24 4 -24 6 0 13 -18 17
-40 4 -22 15 -63 25 -91 10 -28 16 -57 13 -65 -3 -8 -1 -14 5 -14 5 0 16 -19
24 -43 14 -42 13 -44 -11 -63 -15 -10 -30 -18 -34 -16 -5 1 -6 -2 -2 -8 5 -8
11 -7 21 1 18 15 19 13 32 -33 8 -30 8 -36 -4 -31 -8 3 -21 2 -31 -1 -15 -6
-15 -8 2 -20 16 -11 11 -14 -40 -24 -77 -16 -148 -15 -188 2 -53 22 -144 102
-190 169 -37 51 -96 185 -85 191 2 1 17 6 33 12 37 12 48 58 17 68 -11 4 -24
6 -28 5 -32 -7 -69 39 -59 71 5 17 10 18 26 9 12 -6 18 -16 16 -24 -4 -8 1
-11 13 -8 10 3 21 0 24 -6 9 -14 43 -14 51 -1 3 5 -1 26 -10 46 -19 45 -19 48
1 40 9 -4 23 -1 30 5 11 9 14 8 15 -5 1 -9 2 -19 3 -23 2 -5 6 -30 10 -58 15
-103 72 -215 176 -342 75 -91 92 -93 95 -10 1 46 -1 57 -12 52 -27 -10 -107
211 -119 329 -7 76 5 147 57 318 22 73 43 154 46 179 5 45 6 46 52 56 25 6 48
11 50 12 3 0 22 -11 43 -25z m-232 -2 c0 -10 -12 -29 -26 -43 -15 -13 -35 -44
-46 -68 l-19 -44 -16 23 c-12 17 -13 25 -5 28 7 2 12 11 12 19 0 10 -6 13 -17
8 -15 -5 -16 -4 -5 7 7 7 18 13 25 13 7 0 12 8 12 18 0 18 50 57 73 57 6 0 12
-8 12 -18z m394 -32 c20 -28 36 -52 36 -55 0 -3 -11 -5 -23 -5 -13 0 -34 -9
-47 -20 -22 -19 -23 -21 -5 -40 10 -11 29 -20 42 -20 30 0 29 -7 -3 -33 l-27
-21 22 -17 c25 -20 27 -39 5 -39 -9 0 -14 -6 -11 -12 4 -13 10 -15 55 -17 12
0 22 -5 22 -10 0 -14 -54 -20 -69 -8 -12 10 -13 7 -7 -16 5 -20 2 -29 -8 -33
-8 -3 -17 -12 -20 -20 -8 -21 12 -67 27 -61 11 4 13 -8 11 -48 -2 -46 0 -53
14 -48 15 6 15 4 -1 -14 -12 -14 -15 -23 -8 -28 6 -3 11 -1 11 4 0 6 8 11 18
11 15 -1 -17 -35 -75 -81 -22 -17 -14 -38 19 -59 33 -20 33 -20 40 0 4 11 12
20 18 20 13 0 13 27 0 32 -6 2 -1 9 10 16 20 12 21 11 14 -25 -3 -21 -13 -44
-22 -50 -10 -9 -11 -13 -3 -13 8 0 10 -10 5 -36 -9 -46 -39 -125 -47 -125 -4
1 -13 1 -20 1 -8 0 -14 15 -15 40 -2 23 2 40 8 40 17 0 11 17 -8 22 -31 8 -60
149 -66 313 -3 94 12 262 29 315 4 13 9 53 10 89 4 100 4 101 19 101 8 0 30
-23 50 -50z m156 -10 c11 -22 19 -43 18 -47 -1 -5 5 -28 13 -53 10 -34 14 -99
13 -265 -2 -292 -15 -365 -83 -445 l-30 -35 5 59 c2 32 8 66 13 75 17 31 31
159 31 282 0 119 -4 192 -19 364 -10 116 2 137 39 65z m543 -125 l55 -113 64
-31 c35 -18 102 -39 147 -48 101 -20 153 -10 217 43 23 18 45 34 49 34 4 0 6
-30 3 -68 -4 -84 -28 -120 -100 -156 -76 -38 -128 -35 -201 10 -48 30 -61 34
-68 23 -16 -25 2 -112 39 -182 48 -93 86 -138 161 -193 56 -41 62 -48 45 -54
-26 -10 -163 4 -191 18 -34 18 -89 89 -118 150 -20 41 -30 85 -38 160 -6 59
-15 102 -21 102 -6 0 -19 -19 -30 -41 -17 -37 -58 -70 -72 -57 -3 3 5 34 17
69 12 35 25 78 29 96 11 46 -13 186 -49 281 -17 46 -31 88 -31 94 0 30 44 -36
93 -137z m1307 124 c86 -51 133 -123 128 -192 -4 -58 -25 -58 -99 -3 -72 54
-105 58 -189 21 l-55 -23 -3 21 c-10 58 51 156 113 183 42 19 65 17 105 -7z
m-2658 -80 c-34 -40 -81 -104 -104 -142 -72 -117 -119 -170 -158 -179 -79 -17
-200 47 -200 106 0 38 18 41 51 10 l29 -28 76 17 c86 19 128 45 171 108 58 86
176 199 191 184 3 -2 -23 -37 -56 -76z m-1209 49 c22 -11 57 -67 57 -90 0 -23
-5 -23 -40 3 -21 16 -36 20 -57 15 -33 -9 -81 -51 -94 -83 -12 -32 -39 -30
-39 3 0 47 23 106 56 140 27 30 36 33 65 28 19 -4 42 -11 52 -16z m2317 -23
c0 -6 11 -33 24 -61 43 -90 49 -122 43 -218 -6 -89 -34 -221 -54 -261 -6 -11
-18 -37 -27 -57 -15 -36 -29 -47 -40 -30 -2 4 5 34 16 67 11 33 21 74 22 90
17 215 18 253 1 340 -12 63 -14 90 -6 93 16 5 14 22 -3 22 -17 0 -27 24 -19
45 5 14 8 14 24 -1 11 -9 19 -22 19 -29z m-167 15 c-3 -11 -9 -20 -14 -20 -14
0 -11 28 4 33 6 3 13 6 14 6 0 1 -1 -8 -4 -19z m-228 -40 c3 -5 1 -10 -4 -10
-6 0 -11 5 -11 10 0 6 2 10 4 10 3 0 8 -4 11 -10z m-265 -26 c0 -2 -7 -4 -15
-4 -8 0 -15 4 -15 10 0 5 7 7 15 4 8 -4 15 -8 15 -10z m-354 -37 c8 -5 12 -13
8 -19 -4 -6 1 -6 14 1 29 16 33 14 22 -11 -11 -26 -32 -105 -35 -128 -1 -8 -2
-30 -3 -48 -2 -30 -4 -31 -22 -20 -16 10 -24 10 -40 1 -28 -18 -33 -3 -25 89
5 57 15 95 34 131 19 38 27 46 30 32 2 -11 10 -24 17 -28z m1145 24 c-8 -5
-10 -14 -6 -21 6 -10 11 -9 22 5 7 11 13 14 13 8 0 -17 -28 -36 -45 -29 -21 8
-19 44 3 48 23 6 30 -1 13 -11z m-503 -56 c2 -13 0 -16 -5 -8 -7 9 -13 7 -27
-8 -9 -12 -20 -18 -24 -14 -4 4 -1 10 6 12 6 3 12 14 12 25 0 26 34 20 38 -7z
m-1342 -139 c24 -24 34 -43 34 -64 0 -62 -22 -79 -54 -43 -43 47 -99 22 -141
-63 -52 -106 -42 -162 47 -268 21 -27 37 -48 33 -48 -24 0 -77 35 -108 70 -51
60 -70 125 -65 219 6 90 28 141 87 194 35 31 48 37 87 37 39 0 51 -5 80 -34z
m1604 0 c0 -2 3 -12 7 -22 4 -12 3 -15 -5 -10 -7 4 -12 1 -13 -6 0 -7 -4 -4
-9 7 -13 29 -12 35 5 35 8 0 15 -2 15 -4z m-260 -22 c0 -2 -9 -4 -20 -4 -11 0
-20 4 -20 9 0 5 9 7 20 4 11 -3 20 -7 20 -9z m537 -23 c12 -19 8 -31 -10 -31
-5 0 -7 7 -3 15 3 8 1 15 -3 15 -5 0 -11 -6 -14 -12 -2 -7 -7 -10 -11 -7 -9 9
4 39 18 39 6 0 17 -9 23 -19z m-539 -29 c3 -16 -2 -22 -15 -21 -10 0 -13 3 -5
6 17 7 15 23 -3 23 -8 0 -15 5 -15 11 0 20 35 4 38 -19z m1333 -30 c74 -66 53
-263 -34 -309 -48 -26 -98 -44 -134 -50 -31 -5 -123 23 -123 37 0 4 34 10 76
14 127 12 188 65 188 162 0 43 -5 58 -24 79 -20 22 -31 26 -58 21 -46 -7 -55
19 -18 51 38 32 87 31 127 -5z m379 13 c37 -19 67 -69 75 -126 7 -50 -6 -90
-61 -178 l-27 -44 24 6 c13 3 78 22 144 42 65 19 128 35 138 35 31 0 67 -45
67 -85 0 -33 2 -35 34 -35 19 0 42 -3 51 -6 23 -9 45 -57 45 -98 0 -26 6 -38
23 -47 39 -20 67 -52 67 -76 0 -52 -64 -141 -94 -130 -12 5 -12 11 0 44 29 82
10 173 -37 173 -25 0 -78 -28 -149 -79 -76 -55 -192 -121 -212 -121 -9 0 -28
-5 -42 -11 -21 -10 -35 -6 -107 31 -113 58 -158 55 -305 -20 -101 -52 -106
-53 -142 -41 -81 28 -225 107 -244 133 -23 33 -15 35 45 8 57 -26 148 -27 251
-5 153 32 227 90 298 234 36 73 43 95 43 148 0 34 -3 64 -7 68 -4 4 -21 2 -39
-4 -17 -6 -35 -8 -40 -5 -5 3 -9 27 -9 54 0 70 46 122 125 141 46 11 54 10 85
-6z m277 -54 c6 -29 19 -61 29 -72 24 -27 13 -43 -56 -81 -30 -16 -59 -34 -64
-39 -6 -5 -18 -9 -28 -9 -15 0 -17 7 -11 67 6 66 20 96 74 166 12 15 26 26 33
24 6 -2 16 -27 23 -56z m-3700 13 c24 -18 33 -33 33 -54 0 -58 -28 -81 -50
-40 -6 11 -14 20 -19 20 -13 0 -31 -49 -31 -84 0 -62 81 -146 141 -146 66 0
110 -40 74 -66 -37 -27 -265 -10 -265 20 0 6 14 20 30 29 48 29 42 48 -52 156
-21 24 -38 52 -38 63 0 50 71 128 117 128 15 0 41 -11 60 -26z m1713 1 c0 -8
-7 -15 -15 -15 -16 0 -20 12 -8 23 11 12 23 8 23 -8z m-45 -5 c3 -5 1 -10 -4
-10 -6 0 -11 5 -11 10 0 6 2 10 4 10 3 0 8 -4 11 -10z m-835 -22 c-1 -13 -20
-98 -38 -169 -18 -69 -77 -164 -148 -236 -81 -83 -109 -92 -143 -45 -49 69
-36 98 66 147 43 22 54 31 51 49 -2 14 -10 21 -25 21 -36 0 -37 13 -1 30 50
26 78 55 100 108 17 38 31 54 72 78 57 32 66 35 66 17z m830 -18 c0 -5 -4 -10
-10 -10 -5 0 -10 5 -10 10 0 6 5 10 10 10 6 0 10 -4 10 -10z m-1981 -121 c33
-12 133 -130 181 -215 14 -24 44 -57 66 -73 36 -26 84 -79 84 -94 0 -3 -30 -3
-67 0 -93 7 -146 -8 -172 -51 -12 -18 -21 -41 -21 -50 0 -38 -69 3 -194 114
-84 75 -113 86 -192 77 -69 -7 -84 -27 -84 -109 0 -78 -11 -85 -44 -29 -41 71
-14 166 60 209 33 19 50 22 109 19 85 -5 121 -22 203 -98 34 -32 74 -62 88
-65 37 -9 100 12 137 47 l32 29 -35 31 c-48 41 -117 59 -220 57 -93 -2 -154
18 -199 66 -28 30 -22 44 40 86 85 58 157 74 228 49z m2244 -92 c8 -22 -7 -37
-31 -30 -36 9 -26 39 14 42 7 1 14 -5 17 -12z m117 -4 c0 -9 -51 -97 -60 -103
-4 -3 -10 -15 -14 -26 -7 -24 -43 -60 -52 -52 -5 5 68 149 89 176 10 13 37 17
37 5z m230 -3 c0 -5 -10 -10 -22 -10 -19 0 -20 2 -8 10 19 13 30 13 30 0z
m-120 -15 c10 -12 10 -18 0 -30 -16 -20 -36 -19 -44 1 -6 16 9 44 24 44 4 0
13 -7 20 -15z m56 -72 c-10 -10 -19 5 -10 18 6 11 8 11 12 0 2 -7 1 -15 -2
-18z m-16 -28 c-7 -9 -15 -13 -17 -11 -7 7 7 26 19 26 6 0 6 -6 -2 -15z m-657
-152 c-7 -2 -19 -2 -25 0 -7 3 -2 5 12 5 14 0 19 -2 13 -5z m-523 -59 c52 -14
117 -37 144 -51 81 -41 244 -172 320 -257 39 -44 85 -94 101 -112 l30 -33 100
96 c107 102 190 165 270 206 112 57 167 78 232 92 77 17 183 20 183 6 0 -9
-25 -16 -176 -45 -144 -29 -305 -130 -506 -316 -58 -55 -111 -100 -116 -100
-6 0 -24 22 -41 49 -48 74 -275 289 -357 337 -119 70 -219 105 -301 106 -61 1
-73 4 -73 18 0 9 3 20 7 23 14 14 91 6 183 -19z m-955 -33 c44 -10 102 -28
129 -40 67 -29 259 -168 528 -381 108 -85 119 -92 170 -112 28 -10 80 -26 117
-34 68 -16 107 -43 154 -108 l20 -29 -141 5 c-136 5 -144 7 -214 40 -89 43
-143 83 -367 271 -158 133 -180 148 -255 175 -140 51 -225 67 -367 72 -4 0
-12 13 -19 29 -9 24 -9 34 4 59 39 75 94 87 241 53z m3219 -82 c34 -40 43 -76
24 -95 -8 -8 -43 -19 -79 -25 -95 -15 -316 -127 -473 -239 -126 -91 -156 -102
-156 -60 0 59 81 160 185 232 78 53 294 170 360 195 83 31 108 29 139 -8z
m-4502 -49 c21 -6 51 -23 69 -37 40 -34 79 -120 79 -175 -1 -45 -40 -150 -56
-148 -5 0 -22 40 -37 88 -16 48 -37 95 -48 104 -24 21 -105 38 -143 31 -58
-12 -146 -134 -146 -204 0 -123 188 -249 370 -249 44 0 80 -2 80 -5 0 -3 -18
-28 -40 -56 -22 -28 -40 -57 -40 -64 0 -14 -96 -32 -107 -21 -3 3 -11 2 -17
-3 -6 -4 -42 -18 -79 -31 -64 -21 -110 -50 -150 -95 -39 -44 -110 -182 -114
-222 -11 -90 76 -203 216 -280 121 -67 143 -91 213 -231 98 -195 91 -187 193
-206 87 -17 82 -37 -23 -91 -131 -67 -268 -82 -359 -38 -20 9 -56 43 -81 75
-51 65 -80 78 -117 54 -37 -24 -33 -69 10 -122 34 -41 44 -64 27 -64 -5 0 -31
7 -58 15 -42 13 -55 23 -89 72 -85 123 -137 165 -175 140 -28 -17 -25 -45 8
-98 66 -103 158 -152 307 -163 143 -11 184 -38 292 -200 37 -56 100 -133 140
-173 40 -40 73 -77 73 -83 0 -5 -10 -10 -23 -10 -55 0 -93 22 -177 105 -66 64
-94 85 -114 85 -26 0 -27 -1 -20 -52 l7 -52 -44 36 c-24 19 -89 61 -144 93
-144 84 -196 125 -325 254 -164 164 -241 307 -256 473 -5 56 16 204 33 231 11
18 23 -12 42 -103 24 -116 29 -130 48 -130 13 0 15 11 9 78 -17 181 -17 253
-1 310 21 72 89 203 93 180 2 -9 -2 -27 -9 -40 -7 -13 -14 -33 -15 -44 -1 -12
-10 -36 -19 -54 -26 -51 -31 -158 -10 -258 27 -132 65 -196 230 -393 16 -19
37 -45 45 -57 24 -36 40 -27 40 23 0 35 -14 74 -62 173 l-63 127 1 100 c0 79
5 112 23 158 13 32 20 61 17 65 -4 3 -34 -9 -66 -27 -79 -43 -100 -37 -100 27
1 133 71 301 146 353 56 38 253 131 328 155 38 12 56 23 54 32 -2 8 -37 34
-78 57 -93 53 -157 116 -166 162 -10 53 2 135 32 225 21 65 36 90 71 124 67
66 187 98 275 74z m5965 -26 c118 -56 180 -161 170 -289 -9 -108 -57 -216
-129 -285 -18 -18 -62 -45 -97 -62 -35 -16 -60 -33 -55 -38 5 -4 47 -24 94
-43 191 -78 236 -105 302 -176 38 -41 83 -105 113 -162 50 -94 50 -94 50 -189
0 -147 -41 -250 -106 -265 -21 -5 -34 0 -62 24 -39 35 -49 66 -68 211 -6 47
-19 103 -28 126 -17 38 -95 124 -113 124 -11 0 -10 -23 3 -57 35 -93 42 -320
13 -423 -23 -81 -113 -219 -190 -289 -79 -72 -222 -142 -306 -148 -52 -4 -74
-1 -113 16 -52 23 -115 67 -115 80 0 5 23 11 50 14 71 9 164 53 204 97 19 21
57 71 84 113 50 73 104 126 209 201 44 31 55 46 68 89 30 99 12 197 -39 213
-25 8 -56 -28 -56 -65 0 -44 -38 -133 -71 -167 -31 -32 -125 -84 -153 -84 -24
0 -19 33 15 108 39 85 46 149 25 231 -21 81 -20 112 5 191 17 55 18 71 9 112
-7 26 -25 68 -42 92 -33 51 -30 66 13 66 45 0 106 36 178 104 72 69 100 121
101 184 0 96 -53 150 -137 138 -72 -10 -101 -30 -116 -84 -8 -26 -18 -47 -23
-46 -5 0 -19 18 -32 40 -19 33 -22 51 -20 115 3 65 7 81 32 113 69 90 222 122
333 70z m-3216 -67 c-8 -8 -11 -7 -11 4 0 20 13 34 18 19 3 -7 -1 -17 -7 -23z
m56 -9 c-3 -8 -6 -5 -6 6 -1 11 2 17 5 13 3 -3 4 -12 1 -19z m-2339 -23 c2
-16 -1 -47 -8 -69 -10 -35 -10 -41 9 -60 18 -18 34 -21 106 -22 47 -1 85 -5
86 -10 1 -4 -32 -25 -72 -47 -68 -36 -79 -39 -136 -35 -52 3 -68 9 -92 32 -76
73 -75 145 2 211 31 27 49 35 72 33 25 -3 31 -8 33 -33z m1950 -6 c92 -29 220
-98 275 -148 30 -28 34 -41 12 -41 -8 0 -15 -5 -15 -11 0 -6 7 -9 15 -5 9 3
15 0 15 -8 0 -8 6 -17 13 -20 6 -3 3 -4 -7 -3 -10 1 -21 -4 -24 -12 -3 -9 0
-12 10 -9 8 4 21 2 29 -3 11 -7 11 -9 -3 -9 -11 0 -21 -13 -27 -37 -9 -30 -7
-39 7 -50 23 -19 -72 29 -189 94 -55 30 -126 61 -168 71 -54 14 -68 21 -55 27
13 5 15 9 7 12 -18 6 -16 23 4 45 15 17 15 18 -10 18 -15 0 -27 5 -27 10 0 6
7 10 15 10 8 0 15 5 15 10 0 6 -18 10 -39 10 -49 0 -62 16 -21 25 16 4 29 10
29 13 -2 15 3 17 52 20 28 2 67 -2 87 -9z m2920 -3 c43 -22 61 -49 68 -98 8
-60 -8 -107 -52 -151 -49 -48 -107 -68 -170 -56 -55 10 -85 29 -127 81 -27 33
-50 118 -32 118 4 0 38 -11 76 -25 80 -29 109 -23 134 24 19 38 19 50 -2 74
-17 18 -17 19 2 33 24 18 68 18 103 0z m-3083 -76 c-3 -5 -12 -10 -18 -10 -7
0 -6 4 3 10 19 12 23 12 15 0z m-20 -80 c3 -5 1 -10 -4 -10 -6 0 -11 5 -11 10
0 6 2 10 4 10 3 0 8 -4 11 -10z m552 -116 c-3 -3 -12 -4 -19 -1 -8 3 -5 6 6 6
11 1 17 -2 13 -5z m153 -14 c0 -5 -7 -6 -17 -3 -11 4 -14 3 -9 -5 4 -7 2 -12
-3 -12 -12 0 -14 13 -4 23 10 10 33 8 33 -3z m-120 -35 c0 -8 -4 -15 -10 -15
-5 0 -10 7 -10 15 0 8 5 15 10 15 6 0 10 -7 10 -15z m-40 -49 c-7 -7 -14 -6
-21 1 -9 9 -7 12 9 10 14 -1 18 -5 12 -11z m-2263 -60 c94 -25 261 -125 351
-210 18 -17 61 -67 95 -111 l61 -80 19 60 c10 33 20 85 20 115 2 54 2 55 -25
53 -41 -3 -35 22 14 57 48 35 83 38 99 9 9 -18 7 -25 -16 -49 -33 -34 -44 -82
-45 -184 0 -44 -5 -94 -12 -112 -10 -28 -9 -36 3 -51 18 -21 26 -40 69 -181
l33 -104 -18 -61 c-9 -34 -21 -75 -26 -91 -12 -39 -11 -93 1 -101 17 -11 11
-46 -17 -104 -23 -46 -28 -69 -27 -128 0 -71 16 -141 41 -178 22 -33 15 -52
-29 -82 -42 -29 -43 -30 -40 -80 3 -44 0 -53 -18 -63 -16 -9 -25 -8 -36 1 -23
19 -29 2 -11 -36 16 -33 16 -35 -9 -64 -18 -22 -31 -58 -45 -127 -10 -53 -19
-107 -19 -120 l0 -24 403 -1 c221 -1 459 0 530 1 l127 2 0 -76 c0 -42 -1 -76
-2 -77 -2 0 -239 -3 -528 -6 -288 -2 -532 -9 -541 -14 -10 -5 -49 -60 -88
-122 -38 -62 -82 -129 -98 -149 -15 -21 -67 -90 -116 -155 -57 -78 -155 -186
-286 -317 l-199 -200 -109 24 c-59 13 -123 25 -140 28 -41 5 -41 15 -4 39 81
51 286 217 361 292 100 101 285 324 358 431 70 103 275 508 306 602 28 88 69
258 87 365 8 48 10 137 6 275 -5 179 -9 218 -36 332 -37 153 -76 237 -168 361
-135 180 -208 232 -337 242 -138 11 -258 -31 -282 -97 -25 -69 -13 -160 20
-160 7 0 25 9 39 20 37 29 50 25 93 -27 118 -145 198 -216 405 -358 112 -76
124 -94 135 -189 7 -56 7 -57 -35 -96 -46 -44 -89 -75 -96 -69 -2 3 -9 45 -15
94 -9 74 -16 96 -39 125 -15 19 -106 87 -202 151 -200 134 -268 197 -324 300
-36 67 -39 81 -40 149 0 169 89 285 250 324 77 18 89 19 152 2z m4910 -96
c120 -124 158 -200 133 -269 -32 -88 -151 -207 -405 -405 -160 -124 -205 -168
-234 -231 -28 -60 -24 -120 9 -147 27 -22 52 -22 113 -4 51 15 64 9 43 -20
-11 -15 -31 -19 -113 -22 l-100 -4 -38 33 c-70 62 -94 161 -59 244 22 52 106
134 252 243 346 260 362 273 397 343 47 91 45 158 -5 179 -40 17 -198 8 -266
-15 -68 -23 -163 -95 -267 -204 -97 -102 -148 -196 -234 -426 l-48 -130 1
-215 c1 -306 21 -438 105 -694 82 -248 133 -353 271 -560 60 -90 76 -121 66
-127 -10 -7 -9 -9 3 -9 9 0 43 -31 75 -68 64 -74 70 -79 349 -314 192 -162
285 -245 285 -253 0 -3 -70 -5 -155 -5 l-154 0 -53 46 c-152 134 -365 345
-406 403 -26 36 -55 73 -64 83 -24 24 -121 172 -207 316 l-74 122 -281 2
c-154 0 -288 1 -296 0 -8 -1 -100 -1 -205 -1 -104 0 -198 0 -209 0 -17 0 -18
6 -13 61 3 33 10 65 16 71 7 7 65 12 151 13 l140 1 6 -26 c3 -14 12 -41 20
-59 l14 -32 -27 6 c-18 5 -24 4 -19 -5 23 -37 165 11 236 80 l41 40 172 5
c201 6 188 -9 127 144 -69 170 -70 230 -8 344 43 81 43 81 42 181 -1 119 -9
138 -90 215 l-57 54 22 134 c29 170 65 311 98 376 36 71 173 290 186 298 7 4
22 1 34 -7 12 -8 27 -15 32 -15 5 0 56 35 113 78 120 90 193 125 314 152 48
10 91 23 96 28 6 6 4 21 -6 40 -37 72 26 39 131 -68z m-1597 33 c0 -6 -9 -9
-20 -6 -12 3 -20 0 -20 -7 0 -8 -7 -10 -17 -5 -10 4 -25 8 -33 10 -26 6 -26 7
5 15 43 10 85 7 85 -7z m65 -3 c3 -5 4 -14 0 -20 -8 -13 -35 -1 -35 16 0 16
26 19 35 4z m35 0 c0 -5 -5 -10 -11 -10 -5 0 -7 5 -4 10 3 6 8 10 11 10 2 0 4
-4 4 -10z m64 -29 c-3 -3 -13 -6 -24 -8 -22 -3 -28 23 -8 29 13 5 39 -14 32
-21z m-334 -1 c0 -5 -4 -10 -10 -10 -5 0 -10 5 -10 10 0 6 5 10 10 10 6 0 10
-4 10 -10z m125 -20 c3 -5 1 -10 -4 -10 -6 0 -11 5 -11 10 0 6 2 10 4 10 3 0
8 -4 11 -10z m152 -26 c-9 -9 -28 6 -21 18 4 6 10 6 17 -1 6 -6 8 -13 4 -17z
m82 0 c2 -2 -2 -10 -9 -19 -16 -19 -3 -20 16 0 21 21 34 19 34 -6 0 -11 4 -18
9 -15 5 3 14 -1 21 -9 10 -12 9 -15 -8 -15 -12 0 -24 -5 -28 -12 -4 -6 -3 -8
4 -4 22 13 20 -12 -3 -34 l-23 -22 -16 31 c-9 17 -17 34 -17 38 0 5 -10 13
-22 20 -18 10 -19 12 -4 13 24 0 21 17 -4 23 -31 8 -13 28 19 21 15 -4 29 -8
31 -10z m-609 -29 c0 -8 9 -15 19 -15 11 0 22 -4 26 -9 3 -6 -22 -9 -57 -9
-35 1 -76 -2 -93 -7 -16 -4 -28 -5 -25 -2 3 3 8 6 13 6 4 1 16 10 27 21 21 21
46 28 35 10 -3 -5 3 -10 14 -10 23 0 28 15 9 23 -7 3 -3 6 10 6 13 1 22 -5 22
-14z m42 3 c-9 -9 -15 -9 -24 0 -9 9 -7 12 12 12 19 0 21 -3 12 -12z m-2252
-85 c24 -54 31 -197 11 -246 -19 -50 -29 -20 -24 72 4 68 1 101 -12 140 -15
46 -15 81 -1 81 3 0 15 -21 26 -47z m1510 1 c38 -19 74 -28 131 -31 43 -3 79
-8 79 -10 0 -2 -11 -19 -25 -37 l-25 -33 -2 -449 -3 -449 -93 -3 -93 -3 6 298
c5 209 11 309 20 333 9 25 10 41 3 53 -6 12 -6 22 2 32 6 7 9 28 6 47 -3 18
-8 71 -11 117 -3 62 -10 90 -23 105 -56 65 -51 70 28 30z m594 10 c9 -3 13
-10 10 -15 -3 -5 -10 -7 -15 -4 -5 4 -9 0 -9 -8 0 -16 -24 -30 -34 -20 -3 4
-1 12 5 20 9 9 8 13 0 13 -6 0 -11 5 -11 10 0 11 30 13 54 4z m56 -14 c0 -5
-5 -10 -11 -10 -5 0 -7 5 -4 10 3 6 8 10 11 10 2 0 4 -4 4 -10z m744 -17 c-19
-14 -19 -14 0 -25 14 -8 15 -12 6 -18 -7 -4 -9 -13 -6 -19 4 -6 12 -9 17 -6 5
3 6 -1 3 -10 -4 -9 -16 -15 -28 -13 -11 1 -26 -1 -33 -5 -7 -5 -14 4 -18 25
-6 24 -3 35 12 47 11 9 23 24 26 33 4 12 12 15 23 11 15 -6 15 -7 -2 -20z
m-2159 -53 c14 -27 31 -50 39 -50 7 0 19 18 26 40 14 44 30 53 30 18 0 -13 7
-36 15 -51 14 -26 13 -28 -11 -37 -14 -6 -36 -10 -49 -10 -29 0 -59 -43 -51
-75 4 -14 0 -27 -9 -35 -9 -7 -13 -21 -10 -31 4 -11 2 -19 -4 -19 -6 0 -11 4
-11 9 0 5 -12 16 -26 26 -25 16 -29 16 -67 1 -47 -18 -57 -14 -32 14 11 12 37
22 66 26 38 5 49 11 49 25 0 34 -29 51 -77 44 -47 -7 -56 4 -20 24 19 10 33
10 67 1 61 -16 68 -5 49 70 -9 33 -12 60 -8 60 5 0 20 -22 34 -50z m392 -2
c18 -5 60 -10 93 -12 67 -2 80 -12 80 -61 0 -46 -12 -58 -44 -45 -15 5 -44 10
-65 10 -66 0 -138 -67 -99 -91 17 -11 65 -11 72 0 9 14 86 -29 86 -48 0 -41
-41 -53 -75 -21 -18 17 -27 19 -49 10 -41 -15 -81 -12 -106 8 -20 16 -23 29
-25 88 -1 38 -7 79 -14 92 -11 20 -9 26 23 58 37 37 42 37 123 12z m1768 -71
c17 -13 16 -15 -13 -25 -18 -6 -32 -18 -32 -26 0 -9 -9 -16 -20 -16 -27 0 -25
-14 3 -29 l22 -12 -22 5 c-13 2 -23 1 -23 -4 0 -10 -59 -22 -72 -14 -12 8 11
36 26 31 14 -5 36 17 36 36 0 8 7 17 15 21 8 3 12 12 9 20 -3 8 2 16 13 19 31
8 39 7 58 -6z m-169 -158 c4 -7 -6 -10 -32 -7 -30 2 -39 -1 -39 -12 0 -19 -35
-34 -48 -21 -7 7 -2 14 15 20 15 5 29 15 33 20 8 14 62 14 71 0z m-136 -55 c0
-8 3 -13 8 -11 4 3 16 1 27 -4 17 -7 16 -8 -8 -8 -15 -1 -30 -8 -33 -16 -4 -8
-12 -15 -20 -15 -8 0 -14 -4 -14 -8 0 -5 -18 -15 -39 -22 -23 -7 -41 -21 -44
-31 -4 -14 -14 -19 -37 -19 -21 0 -39 -9 -55 -26 -21 -22 -27 -25 -40 -14 -16
13 -18 10 -9 -13 3 -9 14 -13 27 -11 21 4 21 4 2 -5 -12 -5 -24 -5 -29 0 -6 5
-17 9 -25 9 -12 0 -12 -3 -3 -12 16 -16 15 -28 -3 -28 -8 0 -15 -8 -15 -17 0
-10 -7 -27 -16 -38 -12 -16 -18 -18 -34 -7 -11 7 -20 8 -20 3 0 -5 -24 -8 -52
-6 -39 2 -52 6 -50 16 4 21 55 60 70 54 6 -3 19 -8 27 -11 8 -3 15 -2 15 4 0
5 -10 12 -22 15 -18 5 -19 8 -8 22 7 9 27 25 43 37 27 19 30 20 39 4 12 -21
31 -10 23 15 -7 21 10 28 84 33 28 2 47 9 53 20 6 11 5 16 -4 16 -22 0 13 24
72 50 30 13 59 28 65 32 14 13 25 9 25 -8z m-1668 -50 c12 -26 27 -28 70 -9
13 5 18 1 22 -17 18 -88 47 -199 61 -233 10 -22 18 -42 19 -45 0 -3 21 -24 46
-48 54 -52 120 -74 214 -70 69 2 93 -8 82 -37 -5 -14 -16 -16 -71 -10 -52 6
-70 4 -90 -9 -34 -22 -53 -20 -57 7 -2 18 -9 22 -38 20 -19 0 -48 -4 -64 -8
-27 -8 -29 -7 -22 19 8 32 -5 34 -62 6 -84 -41 -109 -23 -77 55 19 45 6 72
-27 54 -27 -14 -34 -4 -18 26 18 34 0 56 -30 37 -32 -20 -50 -15 -50 13 0 35
-18 39 -65 15 -63 -32 -75 -25 -75 50 0 32 4 39 25 44 29 7 32 22 9 47 -16 18
-11 44 7 33 5 -3 16 11 24 30 17 40 39 46 55 16 15 -28 35 -25 62 9 29 37 35
38 50 5z m-512 -48 c0 -29 -55 -75 -72 -58 -6 6 2 22 27 46 19 20 38 36 40 36
3 0 5 -11 5 -24z m2000 14 c0 -5 -12 -10 -27 -9 -25 0 -26 1 -8 9 27 12 35 12
35 0z m-1030 -91 c0 -25 -42 -69 -66 -69 -13 0 -24 -4 -24 -10 0 -5 6 -10 13
-10 6 0 -8 -18 -33 -40 -25 -22 -55 -40 -68 -40 -13 0 -20 -4 -17 -10 3 -5 1
-10 -4 -10 -6 0 -11 6 -11 13 0 24 29 54 58 60 22 4 33 15 40 37 9 25 23 36
35 28 10 -7 47 27 47 42 0 11 7 20 15 20 8 0 15 -5 15 -11z m-920 -104 c21
-30 46 -51 80 -67 41 -19 52 -29 60 -58 19 -67 13 -97 -22 -121 -18 -12 -46
-37 -63 -56 -35 -39 -46 -41 -137 -23 -80 16 -103 6 -93 -42 6 -27 5 -28 -29
-28 -19 0 -38 -5 -41 -10 -4 -6 -1 -33 6 -59 11 -45 10 -51 -10 -84 -12 -20
-28 -55 -35 -79 l-12 -43 -47 3 c-43 3 -48 1 -64 -27 -28 -48 -89 -66 -127
-38 -16 12 -14 15 23 31 56 26 63 65 27 145 -34 76 -37 203 -6 281 11 29 20
74 20 105 0 60 11 70 29 28 6 -16 20 -39 30 -52 15 -20 21 -22 40 -11 12 6 31
20 42 31 11 11 33 19 54 19 77 0 150 56 191 145 14 30 32 55 39 55 8 0 28 -20
45 -45z m1680 -44 c0 -6 16 -7 35 -4 23 4 35 2 35 -6 0 -6 -7 -11 -15 -11 -8
0 -15 -4 -15 -10 0 -5 -11 -12 -25 -16 -14 -3 -25 -10 -25 -15 0 -5 7 -6 15
-3 28 11 16 -24 -15 -43 -30 -17 -39 -33 -20 -33 6 0 10 -5 10 -11 0 -5 -5 -7
-11 -3 -8 4 -9 0 -4 -15 5 -17 2 -21 -14 -21 -11 0 -30 4 -44 9 -14 6 -29 6
-38 0 -12 -7 -12 -9 1 -10 8 -1 22 -2 30 -3 8 -2 26 -3 38 -4 43 -3 17 -25
-30 -26 -51 -1 -79 -16 -32 -17 16 0 22 -3 14 -6 -8 -3 -21 -13 -28 -22 -12
-15 -14 -14 -28 4 -9 12 -11 21 -4 23 5 2 7 15 4 28 -3 13 -2 24 4 24 5 0 7
11 5 23 -3 13 1 30 9 38 7 8 19 26 27 42 11 20 17 24 23 15 5 -8 8 -3 8 15 0
16 4 26 10 22 6 -3 10 3 10 14 0 11 8 22 18 24 31 8 52 7 52 -2z m3134 -97 c3
-8 6 -55 7 -102 1 -194 -63 -300 -396 -657 -67 -71 -140 -154 -163 -183 -47
-60 -142 -214 -142 -231 0 -23 30 3 90 79 67 86 124 130 142 112 14 -14 -7
-123 -34 -176 -11 -22 -38 -61 -59 -86 -21 -25 -58 -69 -83 -99 -61 -73 -84
-142 -101 -313 -16 -152 58 -313 189 -415 77 -60 124 -55 213 21 55 48 89 122
109 238 19 108 14 171 -18 235 -52 104 -109 128 -173 72 -20 -18 -38 -29 -41
-27 -3 3 0 34 5 68 19 116 82 175 160 151 46 -13 66 -41 95 -130 23 -72 39
-83 76 -53 21 17 24 31 30 113 7 107 33 176 80 209 33 23 194 104 228 115 28
8 28 4 -3 -126 -44 -182 -42 -178 -112 -245 -76 -72 -77 -89 -9 -129 52 -30
75 -31 118 -5 40 24 71 25 102 5 48 -31 54 -78 25 -187 -13 -49 -25 -48 -33 1
-7 47 -52 96 -96 106 -21 5 -47 0 -85 -16 l-54 -22 -36 27 c-44 34 -69 29 -58
-11 13 -50 6 -71 -68 -210 -60 -112 -87 -151 -145 -210 -92 -93 -133 -113
-223 -113 -90 0 -114 10 -181 74 -30 29 -104 88 -164 132 -142 103 -181 151
-228 283 -16 47 -19 78 -17 186 1 72 0 155 -2 185 -9 126 -3 194 18 235 28 53
118 137 228 212 149 102 182 153 99 153 -32 0 -47 -10 -128 -89 -76 -74 -101
-92 -146 -105 -58 -17 -120 -21 -120 -7 0 24 117 179 186 245 94 91 159 124
299 155 228 50 284 73 391 159 74 61 94 98 196 365 12 30 23 35 32 11z m-2239
-63 c6 -1 4 -5 -4 -10 -12 -7 -12 -13 -3 -24 20 -24 0 -28 -25 -5 l-23 21 0
-21 c0 -14 -6 -22 -17 -22 -22 0 -45 14 -43 26 3 16 -20 16 -26 0 -8 -22 -21
-20 -19 2 2 35 14 40 82 37 38 -1 73 -3 78 -4z m-205 -15 c0 -11 -19 -15 -25
-6 -3 5 1 10 9 10 9 0 16 -2 16 -4z m240 0 c0 -2 -7 -7 -16 -10 -8 -3 -12 -2
-9 4 6 10 25 14 25 6z m-5198 -62 c4 -16 10 -65 13 -109 11 -147 29 -189 172
-398 115 -167 171 -297 187 -429 6 -53 -16 -50 -39 5 -51 120 -66 149 -108
213 -25 38 -76 105 -112 148 -82 98 -112 149 -143 240 -32 96 -42 273 -18 329
18 44 36 44 48 1z m5267 27 c11 -7 9 -10 -8 -16 -12 -4 -30 0 -43 9 l-22 16
29 0 c17 0 36 -4 44 -9z m-2158 -50 c46 -16 165 -46 264 -67 169 -36 192 -38
364 -39 101 0 205 3 230 7 223 38 293 53 368 79 47 16 87 28 89 26 1 -1 -5
-18 -15 -37 -15 -32 -22 -37 -101 -57 -212 -56 -333 -72 -558 -73 -192 -1
-386 23 -571 71 -160 41 -160 41 -242 -38 -78 -75 -81 -86 -48 -173 23 -61 70
-255 90 -370 18 -104 18 -547 1 -665 -8 -49 -26 -134 -42 -188 l-27 -98 50
-57 c28 -31 59 -67 70 -79 22 -25 15 -63 -12 -63 -32 0 -161 164 -161 205 0
14 15 79 34 143 41 141 57 283 57 506 -1 147 -12 249 -45 421 -4 19 -47 180
-81 305 l-15 54 42 46 c103 109 163 170 169 170 3 0 44 -13 90 -29z m1729 19
c0 -5 -5 -10 -11 -10 -5 0 -7 5 -4 10 3 6 8 10 11 10 2 0 4 -4 4 -10z m-51
-57 c2 -2 -13 -3 -34 -3 -36 0 -37 1 -19 14 14 11 23 12 34 3 8 -6 17 -13 19
-14z m585 -19 c3 -8 2 -12 -3 -9 -5 3 -13 1 -16 -5 -5 -8 -11 -7 -21 1 -7 6
-11 15 -8 20 9 15 41 10 48 -7z m1586 -28 c0 -30 -25 -84 -66 -142 -65 -92
-90 -109 -177 -122 -102 -16 -149 -38 -240 -116 -85 -74 -116 -112 -185 -229
-62 -107 -94 -121 -214 -96 -101 22 -140 95 -136 254 3 116 -39 169 -132 167
-27 0 -50 3 -50 7 0 15 59 89 87 109 67 47 130 36 191 -34 33 -37 42 -57 57
-129 28 -130 66 -175 137 -160 33 8 70 50 67 79 -3 42 2 50 82 131 l80 83 72
6 c103 10 172 32 215 69 38 34 91 75 145 115 35 25 67 29 67 8z m-3805 -41
c50 -14 133 -34 185 -45 81 -16 140 -23 335 -44 17 -2 120 2 230 10 202 13
223 17 410 78 44 14 88 26 97 26 16 0 118 -105 118 -122 0 -4 -13 -40 -29 -80
-56 -144 -88 -288 -122 -553 -24 -185 -23 -161 -10 -250 15 -102 14 -145 -3
-145 -8 0 -18 -5 -22 -11 -5 -8 1 -10 18 -6 25 7 26 5 43 -87 10 -52 15 -107
12 -122 -4 -21 1 -36 19 -57 30 -36 30 -55 -1 -98 -68 -92 -111 -111 -200 -88
-22 5 -53 12 -70 15 -16 3 -61 12 -100 21 -42 9 -150 17 -272 20 -204 6 -334
-5 -513 -42 -36 -8 -95 -19 -133 -26 l-67 -13 -46 45 c-50 48 -75 96 -64 119
4 8 13 39 20 68 8 37 17 52 28 52 13 0 14 2 4 8 -10 7 -10 27 -2 98 16 126 28
355 23 449 -10 196 -55 450 -102 575 -11 29 -18 57 -15 61 2 4 0 10 -6 14 -5
3 -10 13 -10 21 0 19 119 134 139 134 9 0 57 -12 106 -25z m1765 -55 c0 -5 -2
-10 -4 -10 -3 0 -8 5 -11 10 -3 6 -1 10 4 10 6 0 11 -4 11 -10z m-11 -40 c5 0
11 5 13 12 2 6 10 8 16 4 7 -4 10 -12 7 -17 -9 -13 -63 -11 -68 4 -3 6 -6 3
-7 -8 -1 -19 -1 -19 -11 -2 -9 15 -7 21 8 32 16 12 19 11 25 -6 4 -10 12 -19
17 -19z m-3261 3 c25 -15 61 -85 62 -116 0 -15 -3 -16 -20 -7 -31 16 -113 14
-148 -4 -40 -21 -56 -56 -78 -166 -10 -52 -26 -102 -37 -116 -48 -62 -173 -90
-249 -56 -78 35 -211 193 -185 219 4 3 29 -9 56 -26 71 -46 108 -49 192 -16
76 30 94 49 138 154 43 101 83 138 166 152 46 7 70 3 103 -18z m3332 17 c0 -5
-5 -10 -11 -10 -5 0 -7 5 -4 10 3 6 8 10 11 10 2 0 4 -4 4 -10z m-170 -35 c-6
-15 -6 -26 0 -30 6 -4 10 -10 10 -16 0 -13 -28 -11 -32 3 -3 8 -16 5 -42 -11
-20 -13 -39 -21 -41 -19 -9 8 22 53 44 64 12 6 28 17 34 23 21 21 37 13 27
-14z m320 -51 c0 -8 -4 -12 -10 -9 -5 3 -10 10 -10 16 0 5 5 9 10 9 6 0 10 -7
10 -16z m-355 -34 c3 -5 -3 -10 -15 -10 -12 0 -18 5 -15 10 3 6 10 10 15 10 5
0 12 -4 15 -10z m-31 -37 c12 -24 12 -30 -1 -42 -12 -11 -12 -15 -3 -21 19
-12 4 -41 -16 -33 -14 5 -15 3 -4 -18 10 -17 10 -24 1 -27 -6 -2 -11 -14 -11
-27 0 -31 -9 -35 -40 -19 -25 14 -21 18 13 15 9 -1 17 2 17 8 0 5 -8 11 -17
13 -12 2 -18 13 -19 33 0 17 -4 47 -9 68 -7 34 -5 39 14 44 11 3 21 9 21 13 0
5 8 11 18 13 9 3 18 5 19 6 1 0 9 -11 17 -26z m443 -35 c-3 -7 -5 -2 -5 12 0
14 2 19 5 13 2 -7 2 -19 0 -25z m-3102 -202 c18 -13 17 -15 -20 -32 -22 -11
-41 -28 -43 -38 -9 -45 66 -59 171 -31 89 23 121 20 156 -16 45 -45 56 -68 35
-76 -9 -3 -24 -1 -34 5 -13 8 -21 7 -34 -6 -15 -15 -19 -15 -61 1 l-46 16 -11
-24 c-15 -34 -35 -31 -59 9 -19 33 -20 34 -105 38 -93 5 -108 14 -97 58 7 32
69 98 97 103 12 2 24 5 27 6 3 0 14 -5 24 -13z m-1357 -135 c79 -40 245 -249
274 -345 9 -27 13 -109 13 -242 l0 -200 -39 -79 c-28 -56 -58 -97 -109 -148
-107 -107 -209 -144 -365 -134 -113 7 -172 37 -287 150 -49 49 -109 103 -132
120 -50 39 -59 56 -62 127 -2 30 -4 57 -6 59 -13 12 -61 -17 -106 -63 -41 -42
-61 -55 -93 -60 -22 -4 -48 -14 -58 -23 -15 -13 -20 -14 -33 -3 -22 18 -45 76
-45 111 0 79 43 105 158 95 97 -8 126 4 130 55 3 33 -2 40 -62 90 -42 35 -74
72 -90 104 -25 48 -25 55 -19 168 4 84 10 117 19 117 16 0 103 -69 137 -109
54 -64 78 -122 162 -375 46 -142 100 -286 120 -321 64 -114 157 -193 253 -214
136 -29 213 6 295 133 l31 49 -2 136 c-3 214 -29 286 -163 451 -71 87 -127
238 -114 306 13 70 102 91 193 45z m-292 -336 c55 -45 74 -86 74 -157 0 -75
-12 -88 -39 -45 -11 19 -21 39 -21 45 0 5 -13 24 -29 40 -19 22 -34 29 -48 26
-23 -6 -86 -63 -121 -109 l-23 -30 5 30 c14 79 45 204 56 225 19 35 86 24 146
-25z m2468 -142 c-3 -71 -10 -135 -15 -144 -4 -9 -6 -19 -3 -22 7 -7 -45 -187
-62 -214 -8 -12 -14 -31 -14 -41 0 -22 39 -78 100 -141 23 -24 53 -59 67 -78
30 -38 44 -40 113 -13 28 11 64 20 80 20 16 0 31 4 34 8 9 15 333 84 349 74 8
-4 1 -527 -8 -742 -2 -36 -4 -102 -4 -147 l-1 -83 -27 -1 -28 -1 28 -10 28
-10 -6 -321 c-9 -472 -12 -577 -20 -585 -4 -4 -18 7 -32 23 -58 69 -91 103
-135 139 -26 22 -44 44 -41 49 3 6 2 7 -3 4 -6 -3 -31 14 -56 37 -58 53 -107
91 -180 138 -32 21 -58 42 -58 48 0 17 48 11 87 -10 21 -11 45 -20 55 -20 27
0 74 47 92 90 10 26 22 40 34 40 49 0 56 70 15 146 -74 138 -93 181 -93 217 0
63 32 42 80 -52 15 -31 45 -73 65 -93 23 -24 41 -54 48 -84 7 -26 17 -49 22
-51 24 -8 65 121 65 205 0 39 -29 153 -50 193 -7 13 -27 40 -45 59 -30 32 -33
41 -38 122 -7 96 -19 152 -48 213 -19 39 -35 51 -128 102 -66 36 -75 44 -121
103 -60 78 -111 121 -197 169 -199 112 -313 200 -313 244 0 24 3 26 33 20 17
-3 36 -10 42 -14 13 -13 43 -11 47 3 8 23 -4 57 -22 63 -34 11 -60 49 -52 78
l7 27 38 -26 c21 -14 36 -28 33 -31 -3 -3 11 -15 31 -25 34 -19 39 -19 69 -4
51 24 59 48 28 86 -15 17 -43 39 -63 50 -20 10 -67 51 -106 90 -80 82 -98 92
-177 96 -31 1 -65 7 -77 13 -11 6 -56 11 -100 11 -87 0 -100 -10 -61 -45 11
-10 20 -21 20 -25 0 -3 -28 -11 -62 -17 -35 -6 -81 -18 -102 -27 -37 -15 -38
-17 -23 -34 16 -17 15 -20 -14 -48 l-30 -29 21 -17 c24 -20 19 -38 -11 -38
-31 0 -106 -77 -139 -143 -34 -68 -37 -95 -14 -111 14 -10 13 -15 -6 -39 -25
-31 -70 -57 -99 -57 -26 0 -100 56 -161 121 -46 49 -79 60 -124 43 -20 -8 -21
-38 -1 -54 23 -19 18 -33 -10 -26 -20 5 -31 0 -51 -20 -31 -34 -21 -45 49 -59
65 -13 69 -34 10 -55 -31 -10 -43 -20 -43 -34 0 -16 5 -18 45 -13 l44 6 28
-49 c26 -46 31 -50 66 -50 26 0 37 -4 37 -15 0 -10 10 -15 30 -15 24 0 30 -4
30 -21 0 -18 4 -20 29 -14 18 4 40 1 58 -8 26 -14 32 -13 74 8 59 28 84 34 99
25 21 -13 0 -31 -77 -66 -44 -20 -96 -54 -126 -83 -47 -44 -59 -50 -123 -60
-64 -11 -75 -10 -128 9 -62 24 -93 21 -134 -11 -14 -10 -30 -19 -37 -19 -7 0
-39 33 -70 73 -32 39 -86 105 -119 146 l-60 73 29 26 c169 144 337 320 461
482 55 73 49 64 177 250 l93 135 79 5 c44 3 284 6 533 8 l453 2 -7 -127z
m-3392 -235 c53 -160 99 -237 209 -351 50 -53 71 -69 80 -60 6 6 22 50 36 99
32 114 70 187 136 259 5 6 6 -24 2 -75 -8 -102 16 -311 45 -395 33 -96 135
-272 259 -445 97 -135 96 -134 296 -320 254 -236 427 -381 616 -515 419 -299
639 -481 727 -604 65 -89 32 -141 -122 -196 -117 -41 -162 -62 -236 -110 -30
-19 -58 -35 -62 -35 -4 0 -14 15 -22 33 -13 33 -55 72 -142 133 -74 52 -558
421 -583 445 -13 12 -62 54 -110 92 -290 236 -648 599 -768 778 -96 145 -227
391 -297 560 -60 147 -120 361 -135 489 -14 117 -2 384 17 365 4 -3 28 -69 54
-147z m5112 111 c21 -6 50 -23 65 -39 14 -16 37 -30 51 -32 35 -4 37 -44 6
-107 -31 -61 -32 -68 -6 -89 13 -11 24 -39 31 -79 12 -66 17 -71 49 -51 25 16
38 4 80 -76 17 -33 38 -64 47 -71 14 -10 14 -14 -1 -43 -19 -36 -32 -41 -41
-13 -11 35 -33 32 -57 -7 l-23 -37 -9 28 c-13 35 -21 34 -36 -3 -14 -33 -27
-38 -37 -14 -4 11 -17 15 -51 12 -43 -3 -45 -2 -57 32 l-12 35 -62 -3 c-36 -2
-61 1 -61 6 0 6 -15 20 -34 31 -35 22 -51 46 -37 55 4 3 24 -6 44 -19 28 -20
41 -23 60 -16 39 15 83 75 98 132 14 55 19 212 7 224 -3 3 -24 -3 -47 -14 -41
-21 -101 -28 -101 -12 0 5 25 19 56 31 89 36 107 88 39 110 -24 8 -45 8 -72 1
-50 -14 -60 -14 -45 2 16 15 70 35 97 36 11 1 37 -4 59 -10z m869 -58 c63 -24
132 -112 139 -176 6 -54 -25 -41 -71 29 -44 69 -89 104 -145 113 -67 11 -107
-33 -157 -174 -16 -47 -26 -63 -40 -63 -21 0 -25 -16 -6 -24 8 -3 1 -15 -21
-34 -26 -24 -41 -29 -74 -27 -37 2 -57 16 -58 39 0 5 13 6 29 3 24 -5 35 0 69
34 31 32 43 55 56 107 31 126 91 181 198 182 31 0 68 -4 81 -9z m-2920 -38
c-7 -2 -19 -2 -25 0 -7 3 -2 5 12 5 14 0 19 -2 13 -5z m5349 -110 c3 -142 3
-170 -3 -242 -15 -170 -125 -536 -210 -700 -259 -495 -681 -936 -1354 -1412
-312 -221 -377 -277 -454 -386 -12 -18 -29 -33 -36 -33 -8 0 -37 31 -65 70
-75 100 -154 157 -268 194 -29 10 -57 26 -62 36 -57 106 145 348 465 558 72
47 168 110 214 141 47 31 92 61 102 66 9 6 27 17 40 26 13 9 78 51 144 94 171
110 254 175 488 380 163 142 270 282 377 490 86 169 150 435 150 629 0 85 1
88 18 73 25 -23 106 -180 127 -247 24 -74 22 -73 57 -49 84 60 157 158 218
292 19 42 38 77 42 77 4 0 9 -26 10 -57z m-5522 -123 c0 -5 -5 -10 -11 -10 -5
0 -7 5 -4 10 3 6 8 10 11 10 2 0 4 -4 4 -10z m3277 -105 c19 -40 40 -46 45
-13 6 41 27 29 68 -41 59 -98 81 -163 86 -252 5 -82 -6 -129 -30 -129 -23 0
-30 36 -30 170 -1 121 -2 126 -30 168 -33 49 -48 52 -65 15 l-13 -28 -20 25
c-19 24 -21 24 -32 7 -31 -51 -35 -53 -51 -33 -8 10 -16 24 -18 30 -3 10 -10
8 -69 -22 -3 -2 -8 7 -10 19 -4 30 -25 35 -33 9 -8 -26 -25 -22 -36 8 -6 16
-2 29 18 52 l26 31 26 -25 c36 -34 49 -33 59 7 l9 32 13 -27 c15 -31 28 -36
35 -13 3 8 7 22 10 30 7 25 24 17 42 -20z m-3457 15 c0 -5 -2 -10 -4 -10 -3 0
-8 5 -11 10 -3 6 -1 10 4 10 6 0 11 -4 11 -10z m42 -15 c0 -5 -5 -11 -11 -13
-6 -2 -11 4 -11 13 0 9 5 15 11 13 6 -2 11 -8 11 -13z m1501 -210 c-1 -110 -5
-450 -8 -755 -5 -480 -8 -658 -20 -965 -3 -96 9 -116 43 -73 32 42 87 93 152
141 36 26 72 54 80 60 8 7 67 46 130 88 151 100 274 161 567 285 102 43 131
71 62 60 -22 -4 -53 -16 -69 -28 -20 -14 -36 -19 -54 -14 -31 8 -34 26 -6 33
10 3 28 19 38 37 14 23 26 32 50 33 18 1 49 7 70 13 33 8 40 16 51 50 11 38
31 47 31 15 0 -19 56 -47 99 -51 22 -2 49 5 73 18 41 24 49 38 19 38 -38 0
-48 44 -25 110 6 19 99 90 135 103 35 14 93 -2 97 -27 3 -16 -1 -18 -31 -12
-53 10 -66 0 -73 -55 -7 -49 -24 -59 -24 -14 0 46 -35 43 -64 -6 -21 -35 -17
-52 18 -75 25 -16 27 -15 64 12 20 15 94 84 164 152 l127 124 45 -28 c24 -16
78 -51 120 -77 l75 -49 54 58 c54 58 54 58 86 44 41 -17 49 -9 86 85 15 39 39
85 54 104 14 18 46 60 71 91 25 32 112 142 194 244 l150 186 139 0 139 0 -30
-37 c-33 -41 -384 -432 -537 -598 -50 -55 -130 -142 -176 -194 -46 -51 -107
-119 -135 -150 l-51 -56 -59 40 c-33 22 -94 66 -138 97 l-78 57 -57 -45 c-31
-25 -65 -52 -76 -61 -11 -9 -60 -51 -110 -93 -85 -73 -196 -153 -275 -198 -19
-11 -69 -39 -110 -62 -67 -39 -116 -62 -270 -132 -25 -11 -74 -34 -110 -51
-36 -16 -98 -45 -139 -63 -117 -54 -227 -137 -378 -286 -84 -83 -98 -102 -160
-225 l-68 -134 -79 3 -80 3 -17 65 c-36 139 -93 258 -167 347 -35 43 -198 171
-260 205 -18 9 -32 24 -32 32 0 9 -7 12 -18 9 -10 -2 -41 8 -68 23 -27 15 -56
31 -64 35 -8 5 -80 40 -160 78 -134 65 -376 200 -389 218 -3 4 -24 17 -46 28
-39 19 -119 95 -279 263 -43 45 -86 82 -95 82 -17 -1 -104 -53 -226 -137 -41
-29 -81 -53 -88 -53 -33 1 -156 142 -387 445 -46 61 -147 187 -225 280 -221
268 -268 326 -263 331 3 2 63 -7 134 -21 112 -22 132 -29 153 -53 37 -44 61
-72 110 -132 181 -222 504 -605 518 -613 5 -3 34 11 64 31 31 20 99 59 151 86
112 57 100 60 205 -59 50 -57 104 -104 175 -153 57 -38 120 -86 140 -106 23
-22 47 -36 63 -36 18 0 28 -7 35 -24 8 -22 12 -24 40 -16 22 6 32 5 35 -3 19
-55 27 -68 40 -73 9 -4 24 1 34 10 18 16 23 15 94 -28 42 -25 78 -46 80 -46 7
0 133 -77 185 -112 23 -16 40 -33 37 -38 -3 -4 5 -10 18 -14 12 -3 40 -21 61
-40 34 -29 36 -35 20 -39 -12 -3 -8 -5 11 -6 25 -1 56 -27 181 -153 82 -84
163 -170 180 -190 22 -28 33 -35 44 -28 11 7 12 10 2 10 -8 0 -11 7 -8 18 3 9
8 244 11 522 11 1206 15 1374 33 1388 14 11 14 12 -1 12 -13 0 -17 9 -17 45
l0 46 83 -3 82 -3 -2 -200z m-1308 185 c3 -5 -1 -10 -10 -10 -9 0 -13 5 -10
10 3 6 8 10 10 10 2 0 7 -4 10 -10z m1735 -29 c0 -11 -15 -39 -33 -63 -48 -63
-97 -138 -97 -147 0 -17 33 -21 50 -6 21 19 34 19 50 0 7 -8 25 -15 41 -15 23
0 31 7 46 41 l18 41 10 -43 c14 -56 37 -62 65 -17 11 18 20 27 20 21 0 -23 3
-27 37 -63 l33 -35 -21 -17 c-17 -14 -18 -18 -5 -18 20 0 21 -23 1 -40 -21
-18 -35 -4 -33 36 2 51 -14 61 -52 34 l-31 -22 -25 23 -25 23 -6 -22 c-5 -20
-10 -22 -35 -17 -23 5 -35 2 -54 -16 -22 -21 -25 -21 -42 -6 -28 26 -50 22
-44 -8 5 -27 -7 -32 -26 -13 -20 20 -24 2 -7 -31 19 -37 42 -40 55 -6 11 28
13 29 41 14 25 -13 60 -3 53 16 -8 21 15 29 35 11 24 -21 38 -20 51 5 11 20
12 20 31 3 20 -18 26 -59 9 -69 -5 -3 -7 -12 -4 -19 3 -7 -2 -18 -10 -25 -11
-9 -18 -7 -34 14 -31 39 -47 32 -50 -22 -3 -60 -9 -65 -34 -30 -20 28 -21 28
-35 7 -8 -11 -20 -39 -27 -63 -6 -23 -16 -41 -21 -40 -5 1 -15 25 -22 54 -16
62 -20 69 -39 69 -13 0 -15 -17 -12 -110 3 -93 0 -112 -14 -127 -10 -9 -21
-13 -25 -9 -4 4 -9 80 -11 169 -4 162 -4 163 28 261 39 119 62 161 130 238 54
61 70 70 70 39z m-1523 -127 c-3 -3 -12 -4 -19 -1 -8 3 -5 6 6 6 11 1 17 -2
13 -5z m274 -56 c9 -35 -3 -36 -25 -3 -20 31 -20 37 1 33 9 -2 20 -15 24 -30z
m1759 -1 c14 1 33 -6 43 -14 16 -15 19 -14 42 7 26 24 61 21 51 -5 -7 -19 -7
-19 45 4 31 14 47 17 56 9 14 -12 18 -108 5 -108 -12 0 -37 30 -46 54 -8 23
-17 15 -32 -27 -14 -40 -31 -45 -45 -13 -16 34 -35 33 -54 -4 -18 -35 -40 -39
-55 -10 -15 29 -40 25 -40 -5 0 -14 -4 -25 -9 -25 -14 0 -31 58 -31 107 0 42
1 44 23 37 12 -5 33 -7 47 -7z m653 -14 c3 -16 -1 -59 -10 -98 -23 -105 -22
-103 -40 -80 -27 37 -3 205 31 205 7 0 16 -12 19 -27z m-2383 7 c0 -5 -2 -10
-4 -10 -3 0 -8 5 -11 10 -3 6 -1 10 4 10 6 0 11 -4 11 -10z m-108 -22 c-7 -7
-12 -8 -12 -2 0 6 3 14 7 17 3 4 9 5 12 2 2 -3 -1 -11 -7 -17z m88 -42 c0 -11
-19 -15 -25 -6 -3 5 1 10 9 10 9 0 16 -2 16 -4z m2486 -105 c-6 -70 -12 -83
-27 -61 -9 15 -11 127 -2 143 3 4 12 2 20 -5 12 -10 14 -26 9 -77z m-481 9 c8
0 17 4 20 10 3 5 16 15 27 21 20 11 21 9 15 -19 -8 -40 -1 -43 48 -27 21 8 41
13 43 11 1 -2 -5 -20 -14 -40 -21 -43 -13 -54 26 -39 16 6 31 9 33 6 3 -2 0
-22 -5 -44 -9 -32 -8 -43 5 -57 8 -9 20 -42 27 -73 10 -44 19 -60 40 -73 35
-20 64 -20 95 0 25 16 25 16 24 -17 -1 -19 -4 -45 -8 -58 l-6 -24 -12 27 c-13
27 -33 35 -33 14 0 -7 -9 -24 -20 -38 -16 -21 -20 -22 -20 -7 0 30 -19 57 -36
50 -8 -3 -26 -26 -39 -52 l-24 -46 6 110 6 111 -29 13 c-16 7 -53 22 -83 32
-53 19 -98 48 -153 99 -15 14 -41 38 -58 54 -58 54 -61 89 -5 60 27 -14 30
-13 54 10 25 25 25 25 43 6 11 -11 25 -20 33 -20z m731 -28 c9 -48 -11 -178
-36 -237 -28 -67 -100 -141 -100 -105 0 6 18 39 40 73 70 107 93 228 63 326
-3 12 0 11 11 -3 9 -11 19 -35 22 -54z m-112 -33 c-2 -65 -31 -173 -59 -216
-15 -23 -55 -32 -55 -13 0 5 9 29 20 52 20 45 55 159 66 216 11 56 29 30 28
-39z m-997 41 c3 -11 9 -20 13 -20 16 0 60 -111 60 -152 0 -48 -19 -98 -37
-98 -13 0 -63 96 -63 122 0 13 8 18 25 18 19 0 25 5 25 23 0 13 -11 38 -25 57
-26 35 -33 70 -14 70 6 0 13 -9 16 -20z m1219 -129 c-10 -106 -42 -247 -63
-283 -21 -36 -67 -67 -80 -55 -4 5 3 27 16 49 40 69 88 201 95 258 15 126 18
135 28 115 6 -10 8 -45 4 -84z m-2726 85 c0 -2 -7 -7 -16 -10 -8 -3 -12 -2 -9
4 6 10 25 14 25 6z m2839 -122 c9 -67 0 -159 -22 -219 -23 -63 -50 -115 -59
-115 -22 0 -18 41 16 148 28 91 36 134 36 192 0 88 17 85 29 -6z m-3824 32
c24 -57 73 -59 101 -5 8 17 20 29 27 26 6 -2 21 -38 34 -79 19 -63 30 -83 63
-111 40 -34 113 -57 179 -57 46 0 71 -26 71 -73 1 -65 16 -117 49 -164 17 -24
25 -43 19 -43 -25 0 4 -13 32 -15 30 -2 35 5 30 49 -3 31 18 14 42 -34 23 -45
23 -45 71 -43 40 3 47 0 47 -16 0 -28 -31 -59 -65 -64 -39 -6 -120 15 -187 49
-57 28 -99 32 -134 14 -17 -10 -29 -8 -65 10 -83 43 -219 160 -337 293 -24 26
-48 47 -54 47 -21 0 -161 -72 -237 -122 -72 -47 -75 -48 -94 -31 -35 32 -196
231 -191 236 3 3 28 -6 55 -20 40 -21 51 -23 64 -13 8 7 15 19 15 26 0 17 -1
17 39 3 28 -10 34 -9 46 7 12 17 18 17 56 7 53 -14 62 -9 54 28 -8 34 -2 36
32 9 28 -22 58 -26 68 -10 4 6 -3 27 -14 46 -32 55 -25 58 35 17 47 -32 113
-47 120 -28 3 7 -2 27 -11 44 -9 18 -13 36 -10 41 13 20 37 9 50 -24z m2398
-95 c-2 -6 6 -11 17 -11 11 0 20 -6 20 -12 0 -7 7 -26 16 -43 9 -16 19 -59 22
-95 5 -58 3 -64 -11 -52 -8 7 -18 36 -22 65 -7 51 -39 132 -56 143 -14 8 -11
26 4 21 6 -2 11 -10 10 -16z m-1498 -41 c-3 -5 -11 -10 -16 -10 -6 0 -7 5 -4
10 3 6 11 10 16 10 6 0 7 -4 4 -10z m1415 -49 c0 -47 8 -67 84 -204 43 -79 29
-135 -20 -82 -50 54 -85 143 -91 232 -3 46 -3 90 1 98 11 30 26 4 26 -44z
m-145 -37 c12 -79 56 -196 97 -257 22 -32 38 -61 35 -63 -15 -15 -80 62 -120
141 -28 57 -49 225 -28 225 5 0 12 -21 16 -46z m633 -26 c-2 -45 0 -53 15 -56
11 -2 30 6 43 19 24 22 24 22 38 3 14 -19 15 -18 40 5 l26 25 -6 -31 c-3 -16
-1 -46 4 -66 10 -37 10 -37 -19 -37 -25 0 -33 -6 -45 -36 l-15 -37 -20 32
c-21 35 -39 33 -39 -5 0 -13 -4 -24 -10 -24 -5 0 -10 13 -10 29 0 16 -3 37 -6
46 -6 14 -10 13 -32 -7 -23 -21 -24 -21 -17 -3 4 11 11 50 16 87 12 103 44
150 37 56z m-724 -24 c11 -94 44 -174 100 -244 74 -92 93 -130 63 -130 -27 0
-93 79 -131 156 -37 75 -55 154 -56 237 0 57 16 44 24 -19z m-109 -143 c12
-90 72 -204 182 -349 57 -75 33 -132 -28 -68 -82 88 -179 337 -179 461 1 54
15 27 25 -44z m-952 -256 c5 -16 20 -42 34 -56 l24 -26 -38 -23 c-34 -20 -45
-21 -129 -15 -75 5 -97 4 -123 -10 -32 -16 -33 -16 -67 14 -19 17 -48 38 -66
47 -28 15 -30 17 -13 26 17 10 135 6 215 -7 36 -6 37 -6 100 63 27 30 51 25
63 -13z m-1739 -1116 c47 -52 61 -82 54 -116 -5 -27 -39 -27 -107 1 -33 14
-75 26 -94 26 -18 0 -42 7 -53 15 -18 14 -16 17 48 80 77 76 78 76 152 -6z
m501 -100 c66 -44 166 -111 222 -147 63 -41 102 -74 103 -84 0 -10 5 -15 14
-12 7 3 60 -19 117 -48 57 -30 122 -61 144 -70 141 -57 471 -163 550 -177 119
-21 522 -62 605 -62 224 1 497 32 670 77 471 124 582 163 835 294 116 59 239
124 273 144 35 20 66 36 68 36 2 0 44 22 94 50 103 57 115 56 165 -11 17 -23
58 -67 92 -100 73 -70 97 -74 195 -31 74 34 182 70 218 73 42 4 70 -10 70 -35
0 -33 -49 -96 -179 -230 -227 -232 -503 -405 -903 -565 -324 -130 -510 -187
-803 -246 -283 -56 -432 -69 -810 -70 -360 0 -535 25 -835 121 -25 8 -90 28
-145 45 -287 89 -542 191 -800 321 -120 61 -215 118 -215 129 0 5 -6 9 -14 9
-16 0 -135 86 -246 179 -130 108 -151 151 -110 231 26 51 45 60 124 60 62 0
68 2 118 43 114 91 218 157 248 157 9 0 70 -36 135 -81z"/>
<path d="M6085 8990 c-3 -5 3 -10 15 -10 12 0 18 5 15 10 -3 6 -10 10 -15 10
-5 0 -12 -4 -15 -10z"/>
<path d="M4212 8478 c-18 -18 -14 -46 8 -58 40 -21 83 38 46 62 -17 11 -41 9
-54 -4z"/>
<path d="M4282 8159 c2 -7 10 -15 17 -17 8 -3 12 1 9 9 -2 7 -10 15 -17 17 -8
3 -12 -1 -9 -9z"/>
<path d="M4248 8095 c-12 -27 0 -50 33 -60 12 -4 18 -14 16 -28 -1 -13 4 -23
16 -25 10 -2 17 3 17 11 0 8 7 17 15 21 17 6 9 36 -10 36 -7 0 -12 11 -12 25
0 14 4 25 9 25 5 0 6 5 3 10 -3 6 -22 10 -41 10 -27 0 -37 -5 -46 -25z m77
-65 c3 -5 1 -10 -4 -10 -6 0 -11 5 -11 10 0 6 2 10 4 10 3 0 8 -4 11 -10z"/>
<path d="M4015 8010 c-8 -27 12 -52 39 -48 16 2 21 10 21 33 0 25 -4 31 -27
33 -19 2 -28 -2 -33 -18z"/>
<path d="M4366 7981 c-4 -7 -5 -15 -2 -18 9 -9 19 4 14 18 -4 11 -6 11 -12 0z"/>
<path d="M4330 7945 c0 -8 7 -15 16 -15 14 0 14 3 4 15 -7 8 -14 15 -16 15 -2
0 -4 -7 -4 -15z"/>
<path d="M4534 8028 c-11 -17 6 -22 22 -7 13 14 13 16 -1 16 -9 0 -18 -4 -21
-9z"/>
<path d="M5795 8070 c4 -6 11 -8 16 -5 14 9 11 15 -7 15 -8 0 -12 -5 -9 -10z"/>
<path d="M5675 7420 c3 -5 8 -10 11 -10 2 0 4 5 4 10 0 6 -5 10 -11 10 -5 0
-7 -4 -4 -10z"/>
<path d="M5880 4890 c-12 -8 -9 -10 13 -10 16 0 26 4 22 10 -8 12 -16 12 -35
0z"/>
<path d="M4408 6103 c7 -3 16 -2 19 1 4 3 -2 6 -13 5 -11 0 -14 -3 -6 -6z"/>
<path d="M3962 6683 c4 -21 36 -28 58 -13 13 9 13 11 0 20 -26 17 -62 12 -58
-7z"/>
<path d="M5368 6373 c7 -3 16 -2 19 1 4 3 -2 6 -13 5 -11 0 -14 -3 -6 -6z"/>
<path d="M3820 6160 c0 -5 5 -10 11 -10 5 0 7 5 4 10 -3 6 -8 10 -11 10 -2 0
-4 -4 -4 -10z"/>
<path d="M3910 6150 c0 -5 7 -10 16 -10 8 0 12 5 9 10 -3 6 -10 10 -16 10 -5
0 -9 -4 -9 -10z"/>
<path d="M8058 5733 c7 -3 16 -2 19 1 4 3 -2 6 -13 5 -11 0 -14 -3 -6 -6z"/>
<path d="M5842 5938 c7 -19 38 -22 38 -4 0 10 -9 16 -21 16 -12 0 -19 -5 -17
-12z"/>
<path d="M3920 5514 c0 -3 19 -28 43 -54 24 -26 49 -67 56 -89 11 -37 31 -262
47 -526 3 -49 7 -103 9 -118 l5 -29 -88 7 c-48 4 -84 4 -80 0 8 -9 42 -15 112
-20 26 -2 50 -6 52 -7 1 -2 4 -47 6 -99 2 -95 2 -96 -32 -140 -19 -24 -37 -46
-41 -49 -3 -3 -9 -15 -13 -27 -7 -21 -4 -22 71 -25 43 -2 121 -1 173 2 76 4
95 8 98 21 1 8 -22 46 -51 83 l-54 68 2 162 c1 88 3 176 4 195 l1 33 215 -4
c118 -2 216 -6 219 -9 7 -6 9 -299 3 -305 -3 -3 -1 -20 4 -37 15 -52 11 -63
-41 -131 -27 -36 -46 -67 -42 -70 18 -11 72 -16 187 -17 123 -1 175 6 187 25
4 6 -15 33 -41 61 -87 92 -85 86 -72 248 6 78 14 174 18 212 4 39 6 74 4 79
-6 24 33 407 45 442 8 23 30 58 49 77 19 19 31 38 28 41 -10 9 -366 7 -381 -3
-11 -6 -6 -19 22 -55 26 -34 36 -58 37 -84 0 -20 3 -75 5 -121 3 -47 3 -104
-1 -128 l-6 -43 -225 0 -224 0 -1 48 c-1 26 -4 91 -8 145 -3 55 -3 101 2 104
4 2 7 12 7 21 0 9 13 37 29 61 17 25 28 48 25 53 -6 9 -364 11 -364 2z"/>
<path d="M3890 5076 c14 -13 31 -21 39 -18 10 4 10 7 -3 14 -9 5 -14 13 -11
19 4 5 -6 9 -22 9 l-28 0 25 -24z"/>
<path d="M5120 4959 c0 -5 5 -7 10 -4 6 3 10 8 10 11 0 2 -4 4 -10 4 -5 0 -10
-5 -10 -11z"/>
<path d="M3985 4930 c-3 -5 -1 -10 4 -10 6 0 11 5 11 10 0 6 -2 10 -4 10 -3 0
-8 -4 -11 -10z"/>
<path d="M5078 4873 c7 -3 16 -2 19 1 4 3 -2 6 -13 5 -11 0 -14 -3 -6 -6z"/>
<path d="M5069 4839 c-10 -6 -7 -9 14 -9 29 0 35 5 14 13 -8 3 -20 1 -28 -4z"/>
<path d="M3925 4750 c4 -6 11 -8 16 -5 14 9 11 15 -7 15 -8 0 -12 -5 -9 -10z"/>
<path d="M4475 4650 c3 -5 10 -10 16 -10 5 0 9 5 9 10 0 6 -7 10 -16 10 -8 0
-12 -4 -9 -10z"/>
<path d="M4535 4650 c-3 -5 1 -10 9 -10 9 0 16 5 16 10 0 6 -4 10 -9 10 -6 0
-13 -4 -16 -10z"/>
<path d="M4975 4620 c-4 -6 6 -10 22 -10 22 0 25 2 13 10 -19 12 -27 12 -35 0z"/>
<path d="M5010 4521 c0 -5 5 -13 10 -16 6 -3 10 -2 10 4 0 5 -4 13 -10 16 -5
3 -10 2 -10 -4z"/>
<path d="M4980 4444 c0 -16 38 -33 70 -32 27 0 29 2 10 5 -13 3 -33 11 -44 19
-22 15 -36 18 -36 8z"/>
<path d="M3848 4403 c7 -3 16 -2 19 1 4 3 -2 6 -13 5 -11 0 -14 -3 -6 -6z"/>
<path d="M5100 4400 c0 -5 5 -10 11 -10 5 0 7 5 4 10 -3 6 -8 10 -11 10 -2 0
-4 -4 -4 -10z"/>
<path d="M5118 4318 c9 -9 15 -9 24 0 9 9 7 12 -12 12 -19 0 -21 -3 -12 -12z"/>
<path d="M3785 4230 c3 -5 8 -10 11 -10 2 0 4 5 4 10 0 6 -5 10 -11 10 -5 0
-7 -4 -4 -10z"/>
<path d="M5447 5463 c-3 -5 -2 -15 2 -22 7 -10 10 -10 16 -1 4 6 3 16 -3 22
-5 5 -12 6 -15 1z"/>
<path d="M2748 4753 c6 -2 18 -2 25 0 6 3 1 5 -13 5 -14 0 -19 -2 -12 -5z"/>
<path d="M3388 4623 c7 -3 16 -2 19 1 4 3 -2 6 -13 5 -11 0 -14 -3 -6 -6z"/>
<path d="M3395 4350 c-3 -5 -1 -10 4 -10 6 0 11 5 11 10 0 6 -2 10 -4 10 -3 0
-8 -4 -11 -10z"/>
<path d="M4020 4020 c0 -5 5 -10 10 -10 6 0 10 5 10 10 0 6 -4 10 -10 10 -5 0
-10 -4 -10 -10z"/>
<path d="M4125 3829 c-11 -16 -1 -19 13 -3 7 8 8 14 3 14 -5 0 -13 -5 -16 -11z"/>
<path d="M4278 3193 c6 -2 18 -2 25 0 6 3 1 5 -13 5 -14 0 -19 -2 -12 -5z"/>
<path d="M4278 3083 c7 -3 16 -2 19 1 4 3 -2 6 -13 5 -11 0 -14 -3 -6 -6z"/>
<path d="M4085 2920 c3 -5 8 -10 11 -10 2 0 4 5 4 10 0 6 -5 10 -11 10 -5 0
-7 -4 -4 -10z"/>
<path d="M4030 2502 c0 -15 71 -25 83 -13 8 8 2 11 -20 11 -17 0 -38 3 -47 6
-9 3 -16 2 -16 -4z"/>
<path d="M4145 2490 c-4 -6 5 -10 20 -10 15 0 24 4 20 10 -3 6 -12 10 -20 10
-8 0 -17 -4 -20 -10z"/>
<path d="M1135 3169 c5 -21 -6 -34 -84 -96 -57 -46 -96 -70 -106 -67 -32 13
-12 -14 51 -69 67 -58 126 -84 167 -71 46 13 107 56 122 84 32 62 19 89 -90
184 -54 48 -65 54 -60 35z m87 -86 c15 -15 28 -36 28 -48 0 -53 -91 -134 -150
-135 -22 0 -90 48 -90 64 0 2 35 32 78 67 42 34 79 66 80 70 6 16 25 9 54 -18z"/>
<path d="M1365 2948 c4 -18 -5 -30 -41 -58 -25 -19 -64 -50 -86 -67 -30 -25
-46 -32 -66 -27 l-27 5 27 -25 c16 -14 25 -31 22 -39 -4 -10 4 -16 28 -20 39
-6 45 -2 29 16 -9 11 -1 23 39 56 28 23 50 38 50 32 0 -5 -7 -44 -15 -86 -16
-85 -13 -95 38 -135 15 -12 24 -27 20 -33 -3 -7 -2 -9 2 -4 5 4 18 1 31 -7 25
-17 40 -10 23 10 -9 11 -6 16 13 23 45 17 63 16 96 -7 l32 -23 -25 -34 c-20
-25 -31 -32 -48 -27 l-22 5 23 -25 c12 -13 22 -29 22 -35 0 -6 8 -13 18 -17 9
-3 23 -9 31 -12 10 -5 11 -1 7 14 -7 21 43 112 106 193 15 20 28 42 28 47 0
12 -39 28 -55 23 -5 -2 -53 -16 -105 -33 -189 -60 -196 -58 -185 31 9 75 13
83 39 75 46 -15 66 -12 86 13 11 14 20 35 20 47 0 29 -122 146 -152 146 -5 0
-6 -10 -3 -22z m90 -78 c17 -18 17 -21 1 -45 -19 -29 -59 -33 -90 -10 -19 14
-19 16 14 45 39 35 51 37 75 10z m175 -227 c0 -5 -9 -19 -19 -32 -16 -21 -20
-22 -39 -10 -28 18 -28 23 6 36 33 13 52 15 52 6z"/>
<path d="M1735 2502 c-84 -54 -103 -126 -50 -183 33 -35 82 -59 117 -58 18 0
14 5 -18 19 -45 20 -74 53 -74 85 0 30 56 93 97 110 51 22 71 19 105 -15 25
-25 28 -35 23 -61 l-7 -31 26 17 c29 19 30 24 15 57 -30 66 -169 102 -234 60z"/>
<path d="M1948 2320 c-66 -35 -95 -113 -64 -169 21 -38 94 -81 138 -81 85 0
168 64 168 130 0 44 -30 94 -72 120 -43 26 -120 26 -170 0z m176 -31 c43 -34
36 -73 -23 -130 -58 -56 -102 -69 -149 -45 -50 26 -56 68 -15 116 62 75 137
98 187 59z"/>
<path d="M2480 1810 c0 -5 4 -10 9 -10 6 0 13 5 16 10 3 6 -1 10 -9 10 -9 0
-16 -4 -16 -10z"/>
<path d="M8381 3844 c-27 -35 -34 -60 -27 -99 12 -61 63 -85 106 -50 29 23 39
25 54 9 40 -39 4 -111 -49 -98 l-27 7 17 -27 c19 -29 24 -30 45 -13 50 39 64
110 35 167 -21 40 -54 43 -91 9 -26 -24 -50 -24 -64 0 -16 31 -12 59 12 75 16
12 25 13 35 4 22 -18 28 0 8 22 -23 26 -29 25 -54 -6z"/>
<path d="M8273 3686 c-39 -51 -40 -54 -10 -49 17 3 29 -7 57 -48 59 -87 60
-92 49 -132 -19 -71 -46 -62 -117 38 -30 41 -57 75 -62 75 -9 0 -41 -46 -40
-57 1 -5 9 -7 18 -6 11 2 34 -21 65 -66 69 -98 111 -111 142 -44 10 20 18 47
18 60 0 18 3 21 12 13 10 -8 18 -4 34 16 26 33 27 44 3 37 -13 -3 -32 16 -72
74 -30 43 -57 90 -60 105 l-5 26 -32 -42z"/>
<path d="M8093 3433 c-17 -6 -203 -220 -203 -232 0 -6 7 -8 15 -4 9 3 22 -2
31 -13 40 -52 75 -106 71 -110 -3 -3 -44 4 -92 16 -104 25 -122 24 -148 -12
-24 -32 -18 -45 12 -26 15 9 24 10 29 2 115 -170 117 -175 81 -194 -21 -12
-23 -11 -166 92 -76 54 -84 29 -43 -127 18 -67 29 -127 26 -141 -8 -30 3 -30
37 -1 31 26 35 45 10 43 -11 -1 -20 10 -26 32 -9 29 -7 36 18 62 l28 29 28
-22 c20 -14 27 -27 23 -39 -11 -35 14 -18 77 53 72 79 81 94 52 85 -16 -5 -28
5 -58 49 -21 30 -35 58 -31 62 3 4 47 -2 97 -12 69 -14 93 -15 102 -6 8 8 8
16 2 26 -6 8 -36 52 -68 98 -59 87 -63 106 -28 134 23 18 27 16 51 -22 12 -20
27 -41 33 -48 31 -33 61 -83 60 -99 -1 -10 2 -18 6 -18 11 0 89 93 107 127 50
97 -45 252 -133 216z m52 -64 c69 -61 84 -131 40 -181 -13 -16 -27 -28 -30
-28 -8 0 -125 161 -125 173 0 15 51 67 67 67 7 0 28 -14 48 -31z m-417 -487
l23 -18 -21 -19 c-24 -21 -25 -20 -35 23 -7 36 0 39 33 14z"/>
<path d="M7432 2750 c-39 -35 -44 -58 -10 -45 9 4 25 -10 44 -37 16 -24 31
-45 34 -48 22 -19 51 -73 46 -85 -14 -37 20 -20 85 43 l72 68 -18 27 c-22 34
-41 30 -37 -9 2 -21 -5 -37 -22 -53 l-25 -24 -21 24 c-65 76 -101 134 -95 156
8 32 -3 28 -53 -17z"/>
<path d="M7262 2603 c-46 -38 -53 -54 -21 -50 16 1 34 -16 74 -73 30 -41 54
-85 54 -97 1 -13 4 -23 7 -23 9 0 149 122 148 129 -5 27 -19 51 -31 55 -12 5
-14 1 -9 -20 6 -21 1 -33 -20 -55 -15 -16 -33 -29 -40 -29 -6 0 -29 26 -50 58
-21 31 -47 67 -58 79 -15 18 -16 25 -7 37 25 30 -6 23 -47 -11z"/>
<path d="M7145 2505 c-26 -25 -50 -45 -52 -45 -3 0 -38 -24 -79 -54 -41 -30
-80 -56 -87 -59 -9 -3 -9 -11 -2 -32 13 -38 35 -44 35 -11 0 22 5 26 28 26 21
0 35 -11 65 -52 42 -56 60 -95 51 -109 -11 -18 14 -8 54 21 47 34 53 50 18 47
-19 -2 -35 13 -79 73 -51 69 -54 76 -40 93 19 20 49 23 56 5 2 -7 8 -9 13 -5
4 4 2 17 -5 29 -11 17 -11 22 1 29 19 12 21 12 43 -13 51 -57 103 -143 94
-155 -7 -7 -6 -14 2 -18 6 -4 14 -3 18 2 3 5 21 19 39 32 36 25 45 56 12 46
-15 -5 -30 9 -76 70 -37 51 -54 83 -51 96 9 34 -9 29 -58 -16z"/>
<path d="M6878 2413 c7 -3 16 -2 19 1 4 3 -2 6 -13 5 -11 0 -14 -3 -6 -6z"/>
<path d="M7167 2329 c8 -8 16 -8 30 0 16 9 14 10 -11 11 -22 0 -27 -3 -19 -11z"/>
<path d="M6843 2279 c-29 -21 -54 -39 -56 -39 -11 0 -187 -121 -187 -129 0
-13 40 -45 47 -37 4 4 1 11 -7 17 -13 8 -11 12 10 29 14 11 28 20 31 20 4 0
19 -19 35 -42 16 -24 42 -60 58 -81 23 -29 27 -40 18 -49 -14 -14 -16 -28 -4
-28 5 0 30 14 55 31 48 31 63 55 28 44 -36 -11 -144 143 -119 172 13 17 45 17
51 1 2 -7 8 -9 13 -5 4 4 2 17 -5 28 -14 24 -14 24 14 33 17 5 30 -8 78 -79
34 -51 54 -90 51 -100 -9 -22 3 -19 52 17 49 35 57 52 20 42 -21 -5 -30 4 -78
74 -40 58 -53 84 -46 95 17 31 -9 25 -59 -14z"/>
<path d="M4468 3873 c7 -3 16 -2 19 1 4 3 -2 6 -13 5 -11 0 -14 -3 -6 -6z"/>
<path d="M4398 3133 c6 -2 18 -2 25 0 6 3 1 5 -13 5 -14 0 -19 -2 -12 -5z"/>
<path d="M5631 2807 c-17 -17 -14 -67 4 -67 23 0 95 39 95 51 0 19 -82 33 -99
16z"/>
<path d="M3765 2440 c3 -5 20 -10 36 -10 18 0 28 4 24 10 -3 6 -20 10 -36 10
-18 0 -28 -4 -24 -10z"/>
<path d="M5318 2433 c7 -3 16 -2 19 1 4 3 -2 6 -13 5 -11 0 -14 -3 -6 -6z"/>
<path d="M3900 2400 c0 -5 7 -10 16 -10 8 0 12 5 9 10 -3 6 -10 10 -16 10 -5
0 -9 -4 -9 -10z"/>
<path d="M3958 2383 c7 -3 16 -2 19 1 4 3 -2 6 -13 5 -11 0 -14 -3 -6 -6z"/>
<path d="M4170 2120 c0 -5 6 -10 14 -10 8 0 18 5 21 10 3 6 -3 10 -14 10 -12
0 -21 -4 -21 -10z"/>
<path d="M4393 2113 c9 -2 23 -2 30 0 6 3 -1 5 -18 5 -16 0 -22 -2 -12 -5z"/>
<path d="M4455 2110 c-4 -6 5 -10 19 -10 14 0 26 5 26 10 0 6 -9 10 -19 10
-11 0 -23 -4 -26 -10z"/>
<path d="M4285 2060 c-3 -5 1 -10 10 -10 9 0 13 5 10 10 -3 6 -8 10 -10 10 -2
0 -7 -4 -10 -10z"/>
<path d="M4500 2010 c0 -5 5 -10 11 -10 5 0 7 5 4 10 -3 6 -8 10 -11 10 -2 0
-4 -4 -4 -10z"/>
<path d="M4335 2000 c3 -5 8 -10 11 -10 2 0 4 5 4 10 0 6 -5 10 -11 10 -5 0
-7 -4 -4 -10z"/>
<path d="M4515 1960 c-3 -5 3 -10 15 -10 12 0 18 5 15 10 -3 6 -10 10 -15 10
-5 0 -12 -4 -15 -10z"/>
<path d="M4790 3749 c0 -5 5 -7 10 -4 6 3 10 8 10 11 0 2 -4 4 -10 4 -5 0 -10
-5 -10 -11z"/>
<path d="M4778 3633 c7 -3 16 -2 19 1 4 3 -2 6 -13 5 -11 0 -14 -3 -6 -6z"/>
<path d="M4860 3630 c-20 -12 -5 -24 16 -12 9 5 12 12 7 15 -5 3 -15 2 -23 -3z"/>
<path d="M2908 3323 c7 -3 16 -2 19 1 4 3 -2 6 -13 5 -11 0 -14 -3 -6 -6z"/>
<path d="M2445 1690 c-3 -5 -1 -10 4 -10 6 0 11 5 11 10 0 6 -2 10 -4 10 -3 0
-8 -4 -11 -10z"/>
<path d="M2548 1673 c7 -3 16 -2 19 1 4 3 -2 6 -13 5 -11 0 -14 -3 -6 -6z"/>
<path d="M2366 1621 c-4 -5 -2 -12 4 -16 5 -3 10 -11 10 -16 0 -15 -141 -149
-156 -149 -17 0 -19 -30 -1 -30 6 0 35 -17 62 -38 93 -69 169 -72 237 -9 27
24 37 42 41 72 6 49 -13 75 -93 129 -30 20 -65 43 -77 52 -13 9 -23 11 -27 5z
m132 -119 c19 -25 14 -58 -14 -92 -36 -42 -77 -62 -111 -54 -35 9 -73 33 -73
46 0 6 30 41 67 79 66 69 66 69 92 53 14 -9 32 -23 39 -32z"/>
<path d="M2596 1557 c3 -10 9 -15 12 -12 3 3 0 11 -7 18 -10 9 -11 8 -5 -6z"/>
<path d="M2633 1543 c9 -2 23 -2 30 0 6 3 -1 5 -18 5 -16 0 -22 -2 -12 -5z"/>
<path d="M6513 1487 c-29 -20 -32 -28 -38 -87 -3 -36 -8 -85 -11 -109 l-6 -44
-67 67 -68 67 -36 -21 c-40 -24 -46 -33 -20 -28 12 2 20 -9 30 -41 20 -70 31
-169 19 -181 -28 -28 -59 0 -149 129 -28 40 -50 51 -62 31 -3 -5 -12 -47 -20
-92 -24 -135 -32 -167 -45 -183 -7 -9 -11 -18 -8 -21 8 -8 88 27 88 38 0 6 -7
8 -15 4 -12 -4 -15 4 -15 38 0 42 2 44 42 61 41 16 42 16 60 -7 21 -27 22 -40
6 -57 -21 -21 25 -4 122 45 64 33 79 43 59 43 -25 1 -28 5 -38 64 -19 108 -17
109 53 35 35 -38 68 -68 75 -68 7 0 11 23 12 63 1 85 12 162 23 160 5 -1 20
-33 33 -70 19 -53 22 -72 13 -86 -18 -30 -8 -28 50 8 42 26 50 35 33 35 -24 0
-35 20 -76 139 -17 48 -19 65 -9 68 13 5 17 23 5 22 -5 0 -22 -10 -40 -22z
m-369 -302 c19 -29 16 -40 -14 -48 -18 -4 -20 0 -20 34 0 45 11 49 34 14z"/>
<path d="M2010 1419 c0 -5 5 -7 10 -4 6 3 10 8 10 11 0 2 -4 4 -10 4 -5 0 -10
-5 -10 -11z"/>
<path d="M2615 1391 c-17 -10 -43 -33 -59 -52 -22 -26 -27 -40 -23 -65 13 -79
94 -131 189 -122 97 10 156 110 109 185 -41 66 -152 93 -216 54z m134 -22 c65
-23 58 -95 -15 -159 -41 -36 -80 -39 -118 -9 -46 36 -27 107 41 154 43 28 48
29 92 14z"/>
<path d="M2920 1291 c0 -5 5 -11 11 -13 26 -9 -90 -173 -121 -173 -34 0 -24
-19 21 -42 48 -24 79 -29 79 -13 0 6 -5 10 -11 10 -6 0 -8 9 -4 21 8 24 91
145 106 155 18 11 58 -24 52 -46 -7 -27 -18 -32 -64 -32 -36 1 -39 -1 -38 -26
0 -15 6 -49 12 -76 13 -54 31 -69 121 -99 63 -22 73 -21 53 1 -16 17 -14 22
20 70 20 29 40 52 46 52 6 0 8 -31 4 -85 -5 -69 -3 -85 8 -85 8 0 22 8 32 18
22 22 139 112 147 112 2 0 -5 -20 -17 -44 -12 -25 -25 -42 -29 -40 -4 3 -5 -1
-3 -9 6 -13 -31 -54 -44 -49 -3 1 -6 -3 -6 -10 0 -13 112 -44 122 -34 4 3 -1
12 -11 19 -16 12 -14 19 29 105 38 76 50 92 70 92 33 0 51 -25 37 -53 -6 -12
-19 -40 -28 -62 -24 -54 -55 -95 -72 -95 -7 0 -12 -5 -10 -12 4 -12 119 -40
128 -31 3 3 -3 11 -13 18 -14 10 -16 17 -8 32 6 10 22 44 35 76 17 38 31 57
43 58 10 0 13 3 6 6 -20 8 -15 23 8 23 42 0 11 24 -52 42 -35 9 -83 23 -106
30 -40 11 -44 11 -70 -14 -16 -14 -47 -38 -70 -53 -24 -15 -43 -32 -43 -36 0
-5 -5 -9 -11 -9 -7 0 -10 29 -8 86 l3 86 -33 14 c-18 8 -40 14 -49 14 -13 0
-13 -2 1 -18 14 -16 14 -19 -4 -42 -11 -14 -38 -51 -60 -82 -42 -62 -70 -73
-89 -38 -6 11 -8 25 -5 30 3 5 1 11 -5 15 -5 3 -10 22 -10 41 0 31 3 34 29 34
20 0 36 9 50 26 33 42 10 72 -86 112 -86 35 -93 37 -93 23z"/>
<path d="M5903 1192 c-43 -16 -57 -32 -28 -32 8 0 17 -10 19 -22 24 -113 26
-130 14 -151 -16 -30 -39 -46 -66 -47 -29 0 -38 24 -47 123 -4 43 -11 80 -16
82 -9 6 -79 -25 -79 -36 0 -4 8 -6 17 -5 14 1 19 -11 25 -59 15 -114 19 -125
43 -141 31 -20 85 -5 115 34 17 21 23 23 30 12 7 -11 15 -12 49 -1 40 11 59
35 24 29 -14 -2 -21 9 -30 47 -23 87 -28 166 -12 176 23 14 -9 9 -58 -9z"/>
<path d="M3386 1108 c3 -5 10 -6 15 -3 13 9 11 12 -6 12 -8 0 -12 -4 -9 -9z"/>
<path d="M2718 1083 c7 -3 16 -2 19 1 4 3 -2 6 -13 5 -11 0 -14 -3 -6 -6z"/>
<path d="M5505 1066 c-41 -18 -83 -69 -91 -111 -10 -53 15 -117 52 -136 26
-12 30 -19 22 -33 -5 -9 -7 -25 -3 -34 6 -15 8 -14 16 6 10 25 43 29 114 11
58 -15 99 3 103 46 l3 30 -16 -22 c-12 -17 -26 -23 -53 -22 -37 1 -99 16 -73
18 26 2 83 53 97 87 26 63 9 140 -35 164 -27 14 -100 12 -136 -4z m96 -25 c19
-15 24 -30 27 -83 4 -57 1 -68 -19 -91 -32 -36 -78 -44 -109 -19 -19 15 -24
30 -27 78 -4 67 9 102 47 121 34 18 54 16 81 -6z"/>
<path d="M3670 1034 c0 -8 6 -14 13 -15 6 0 3 -4 -8 -9 -11 -5 -14 -9 -7 -9
13 -1 7 -45 -8 -66 -4 -5 -13 -27 -19 -47 -7 -21 -17 -38 -22 -38 -5 0 -9 -7
-9 -15 0 -8 -7 -15 -15 -15 -21 0 -19 -18 3 -24 9 -2 55 -12 101 -22 l84 -18
18 23 c10 12 15 29 12 37 -5 13 -9 12 -27 -5 -18 -17 -28 -19 -59 -11 -21 4
-41 11 -44 14 -4 3 2 24 12 47 16 34 22 39 42 35 13 -3 34 -9 48 -12 18 -5 25
-2 25 9 0 9 -14 17 -40 21 -22 3 -40 10 -40 15 0 22 23 71 34 71 23 0 76 -31
71 -41 -4 -5 -2 -9 4 -9 15 0 34 41 24 50 -4 5 -50 17 -100 28 -77 16 -93 17
-93 6z"/>
<path d="M5308 1023 c-22 -5 -24 -23 -3 -23 12 0 15 -16 15 -82 l-1 -83 -72
78 c-65 69 -77 77 -109 77 -20 0 -40 -4 -43 -10 -3 -5 1 -10 10 -10 8 0 19
-10 24 -23 12 -32 2 -168 -15 -194 -16 -26 -11 -28 45 -17 31 6 44 24 17 24
-20 0 -21 9 -18 92 l4 73 77 -84 c104 -113 111 -110 111 47 0 78 4 122 12 130
9 9 7 12 -12 11 -14 -1 -33 -3 -42 -6z"/>
<path d="M3890 990 c0 -5 8 -13 18 -19 16 -9 15 -16 -14 -98 -22 -63 -37 -91
-52 -98 -31 -14 -27 -22 16 -29 62 -10 67 -9 50 12 -16 17 -15 24 7 77 7 17
17 41 22 55 10 24 13 20 52 -60 22 -47 41 -91 41 -97 0 -7 11 -13 25 -13 22 0
27 9 55 103 17 56 40 109 50 118 19 16 19 17 -3 23 -12 3 -33 6 -47 6 -23 -1
-23 -2 -8 -14 16 -12 16 -17 -3 -82 -12 -38 -24 -72 -28 -77 -4 -4 -15 12 -25
35 -56 131 -67 149 -92 158 -32 13 -64 13 -64 0z"/>
<path d="M5010 973 c-48 -8 -57 -14 -34 -23 15 -6 21 -16 19 -32 -1 -13 -3
-46 -4 -75 -1 -43 -6 -57 -28 -78 -16 -14 -40 -25 -55 -25 -36 0 -42 25 -30
126 5 44 8 81 6 84 -1 3 -22 4 -45 2 -32 -3 -38 -7 -26 -13 13 -8 15 -21 11
-72 -3 -34 -7 -75 -9 -91 -12 -69 74 -100 134 -50 17 14 32 23 32 20 1 -3 2
-12 3 -18 1 -9 15 -12 41 -10 44 4 74 22 35 22 l-23 0 6 102 c5 75 11 106 22
114 30 23 12 28 -55 17z"/>
<path d="M4250 944 c-38 -26 -50 -45 -50 -82 0 -31 4 -35 50 -55 56 -24 65
-36 44 -66 -26 -37 -104 -21 -104 21 0 28 -16 13 -25 -24 -6 -23 -3 -27 27
-33 82 -19 144 7 154 64 9 45 -2 60 -56 80 -39 15 -45 20 -45 46 0 28 3 30 43
33 37 3 44 0 49 -17 7 -27 19 -27 27 1 7 29 0 34 -49 42 -29 5 -47 2 -65 -10z"/>
<path d="M4695 940 c-3 -5 1 -10 9 -10 24 0 25 -11 12 -83 -7 -37 -11 -69 -8
-72 3 -3 1 -5 -4 -5 -5 0 -34 37 -65 83 l-55 82 -49 2 c-38 2 -45 0 -29 -7 12
-5 24 -13 27 -17 9 -15 -33 -187 -48 -199 -22 -16 -18 -24 9 -24 13 0 26 -5
28 -11 5 -14 38 0 38 17 0 8 -7 14 -16 14 -12 0 -15 6 -11 23 3 12 9 46 13 75
4 29 10 54 14 57 4 2 28 -29 55 -70 89 -138 105 -136 125 16 10 77 18 106 34
120 20 19 19 19 -27 19 -25 0 -49 -4 -52 -10z"/>
<path d="M3358 663 c7 -3 16 -2 19 1 4 3 -2 6 -13 5 -11 0 -14 -3 -6 -6z"/>
<path d="M3605 609 c-11 -17 0 -20 21 -4 17 13 17 14 2 15 -9 0 -20 -5 -23
-11z"/>
</g>
</svg>
